<svg xmlns="http://www.w3.org/2000/svg" viewBox="0 0 407.78 417.74"><defs><style>.cls-1{fill:#fff;}.cls-2{fill:#e0e0e0;}.cls-3{fill:#455a64;}.cls-4{fill:#a5a5a5;}.cls-5{fill:#11487d;}.cls-6{fill:#ebebeb;}.cls-7{fill:#f5f5f5;}</style></defs><title>Recurso 2</title><g id="Capa_2" data-name="Capa 2"><g id="Background_Complete" data-name="Background Complete"><rect class="cls-1" x="359.25" y="241.43" width="35.94" height="53.33" transform="translate(23.53 566.55) rotate(-75.56)"/><path class="cls-2" d="M398.56,292.15l.15-.66c.11-.44.26-1.06.45-1.85.41-1.64,1-4,1.76-7,1.53-6.07,3.73-14.75,6.4-25.32l.15.25-51.65-13.25c-.07,0,.6-.35.32-.18h0v.06l0,.07,0,.14-.07.29-.15.58-.3,1.16c-.2.77-.4,1.54-.59,2.31-.4,1.53-.79,3.05-1.18,4.56-.78,3-1.54,6-2.29,8.89l-4.33,16.73-.17-.29,37.13,9.68,10.63,2.8,2.83.76.74.21a.9.9,0,0,1,.25.08l-.23,0-.72-.17-2.8-.69-10.61-2.67-37.34-9.49-.23-.06.06-.23L351,262.06c.75-2.92,1.52-5.89,2.29-8.9q.59-2.26,1.17-4.56l.6-2.31.29-1.16.15-.58.08-.29,0-.14,0-.07V244h0l.32-.19,51.63,13.35.2.05,0,.2c-2.78,10.6-5.06,19.31-6.65,25.39l-1.85,7c-.21.78-.37,1.38-.49,1.81S398.56,292.15,398.56,292.15Z"/><path class="cls-2" d="M407.53,257.34a4.59,4.59,0,0,1-.57.36l-1.67.95-6.21,3.41-20.73,11.19-.2.1-.13-.17c-.33-.42-.67-.88-1-1.33l-15-19.6-4.5-6-1.2-1.64a4.81,4.81,0,0,1-.4-.6,3.21,3.21,0,0,1,.48.53l1.28,1.58,4.63,5.88,15.14,19.5,1,1.33-.33-.07,20.81-11.05,6.29-3.27,1.71-.86A3.16,3.16,0,0,1,407.53,257.34Z"/><path class="cls-2" d="M50.74,326.5a3.17,3.17,0,0,0,1.3-.87,2.81,2.81,0,0,0,.63-1.74,4.46,4.46,0,0,0-.21-1.19c-.11-.43-.22-.89-.34-1.37-1-3.88-2.35-9.46-4-16.34-.43-1.73-.87-3.53-1.33-5.42L46,296.69a8.15,8.15,0,0,0-.41-1.42,2.53,2.53,0,0,0-.95-1,2.45,2.45,0,0,0-1.38-.34,12.15,12.15,0,0,0-1.52.35l-3.19.83-6.64,1.72-29.6,7.66a2.47,2.47,0,0,0-1.78,2.82c.31,1.29.62,2.58.92,3.86q.94,3.84,1.84,7.58L6.78,333l.41,1.71a2.63,2.63,0,0,0,.74,1.38,2.45,2.45,0,0,0,1.38.66,4.23,4.23,0,0,0,1.57-.24l6.27-1.61,11.27-2.87,16.32-4.12,4.44-1.09,1.16-.28.4-.07-.38.13c-.29.07-.67.18-1.15.32l-4.42,1.19-16.28,4.28-11.25,2.93L11,337a4.59,4.59,0,0,1-1.73.26,2.86,2.86,0,0,1-1.65-.78,3.09,3.09,0,0,1-.88-1.61l-.42-1.7C5.2,328.58,4,323.79,2.82,318.82c-.6-2.49-1.21-5-1.84-7.58l-.93-3.9a3,3,0,0,1,2.16-3.41l29.61-7.61,6.65-1.7,3.19-.82a12.51,12.51,0,0,1,1.6-.36,2.91,2.91,0,0,1,1.64.41,3,3,0,0,1,1.1,1.24,9.32,9.32,0,0,1,.44,1.5c.23,1,.46,1.94.69,2.89q.67,2.82,1.3,5.42c1.63,6.9,3,12.49,3.88,16.38.12.49.22.94.32,1.37a4.62,4.62,0,0,1,.19,1.24,2.92,2.92,0,0,1-.7,1.81,2.67,2.67,0,0,1-1,.69A1.57,1.57,0,0,1,50.74,326.5Z"/><polygon class="cls-2" points="27.51 312.13 33.85 314.04 29.09 318.77 24.34 323.51 22.75 316.86 21.16 310.21 27.51 312.13"/><path class="cls-2" d="M109.42,16.24a8.39,8.39,0,0,0,5.07-7.73A7.9,7.9,0,1,0,98.73,8.3a8.39,8.39,0,0,0,5,7.89C91.54,17.92,92,31.11,92,31.11l28.68.37S121.43,18.16,109.42,16.24Z"/></g><g id="Device_3" data-name="Device 3"><rect class="cls-3" x="283.55" y="52.23" width="71.02" height="101.91" rx="3.71" ry="3.71" transform="translate(215.87 422.24) rotate(-90)"/><rect class="cls-1" x="284.36" y="60.63" width="66.54" height="85.11" transform="translate(214.44 420.81) rotate(-90)"/><circle class="cls-4" cx="364.89" cy="103.18" r="2.72" transform="translate(130.78 401.49) rotate(-67.67)"/><path class="cls-4" d="M272.16,93.05v20.27a.56.56,0,0,1-.56.56h0a.57.57,0,0,1-.57-.56V93.05a.57.57,0,0,1,.57-.56h0A.56.56,0,0,1,272.16,93.05Z"/><rect class="cls-2" x="309.33" y="35.58" width="52.18" height="71.41"/><rect class="cls-5" x="296.1" y="44.57" width="52.18" height="71.41"/><rect class="cls-1" x="287.16" y="55.54" width="52.18" height="71.41"/><path class="cls-4" d="M339.37,126.93s0-.13,0-.35,0-.58,0-1l0-3.9c0-3.42-.05-8.38-.08-14.67,0-12.56-.09-30.38-.15-51.47l.23.23-52.17.07h0l.26-.26c0,26.67,0,51.36,0,71.4l-.22-.21,37.9.09,10.54,0,2.78,0,1,0-.93,0-2.73,0-10.5.06-38,.14H287V127c0-20-.06-44.73-.1-71.4V55.3h.27l52.17,0h.24v.24c0,21.15-.06,39-.08,51.63,0,6.26,0,11.21-.05,14.61,0,1.68,0,3,0,3.86,0,.42,0,.74,0,1S339.37,126.93,339.37,126.93Z"/><path class="cls-4" d="M319.06,69.89c0,.14-5.68.26-12.68.26s-12.68-.1-12.68-.25,5.67-.26,12.68-.27S319.06,69.74,319.06,69.89Z"/><path class="cls-4" d="M332.77,76.08c0,.14-8.74.27-19.53.27s-19.54-.1-19.54-.24,8.75-.27,19.54-.28S332.77,75.94,332.77,76.08Z"/><path class="cls-4" d="M332.78,82.55c0,.15-8.75.27-19.54.28s-19.53-.1-19.53-.25,8.74-.27,19.53-.27S332.78,82.41,332.78,82.55Z"/><path class="cls-4" d="M332.78,89c0,.14-8.74.26-19.53.27s-19.54-.1-19.54-.25,8.75-.26,19.54-.27S332.78,88.88,332.78,89Z"/><path class="cls-4" d="M332.79,95.5c0,.14-8.75.27-19.54.27s-19.54-.1-19.54-.24,8.75-.27,19.54-.28S332.79,95.36,332.79,95.5Z"/><path class="cls-4" d="M332.79,102c0,.15-8.74.27-19.53.28s-19.54-.1-19.54-.25,8.75-.27,19.54-.27S332.79,101.83,332.79,102Z"/><path class="cls-4" d="M332.8,108.45c0,.14-8.75.26-19.54.27s-19.54-.1-19.54-.25,8.75-.26,19.54-.27S332.8,108.3,332.8,108.45Z"/><path class="cls-4" d="M314.73,114.93a102,102,0,0,1-10.5.27c-5.8,0-10.5-.11-10.5-.25a102,102,0,0,1,10.5-.27C310,114.68,314.73,114.79,314.73,114.93Z"/></g><g id="Device_2" data-name="Device 2"><rect class="cls-4" x="125.42" y="311.16" width="159.01" height="105.15" rx="7.01" ry="7.01"/><path class="cls-4" d="M281.85,417.74H128a9.2,9.2,0,0,1-9.2-9.2H291.05A9.2,9.2,0,0,1,281.85,417.74Z"/><rect class="cls-3" x="129.69" y="315.34" width="150.03" height="88.8"/><polygon class="cls-3" points="189.25 408.54 191.39 411.94 221.47 411.94 223.45 408.54 189.25 408.54"/><rect class="cls-1" x="134.69" y="321.25" width="138.13" height="82.85"/><path class="cls-6" d="M204.9,331.86,206.21,356a1.63,1.63,0,0,0,1.62,1.54l43.51.32a1.63,1.63,0,0,0,1.64-1.62l.14-18.82a1.64,1.64,0,0,0-1.63-1.64l-26.76,0a1.6,1.6,0,0,1-1.15-.48L219,330.7a1.66,1.66,0,0,0-1.14-.48l-11.28-.08A1.63,1.63,0,0,0,204.9,331.86Z"/><rect class="cls-7" x="205.51" y="332.8" width="47.54" height="28.41" transform="translate(2.55 -1.67) rotate(0.42)"/><path class="cls-6" d="M201.82,335.15l3.41,29.64a1,1,0,0,0,1,.93l46.33.34a1,1,0,0,0,1-1l2.55-29.6a1,1,0,0,0-1-1.14L202.87,334A1,1,0,0,0,201.82,335.15Z"/><path class="cls-5" d="M171.33,344.85l1.81,33.37a2.25,2.25,0,0,0,2.23,2.13l60.06.44a2.26,2.26,0,0,0,2.27-2.24l.19-26a2.25,2.25,0,0,0-2.25-2.27l-36.94,0a2.22,2.22,0,0,1-1.59-.66l-6.37-6.36a2.24,2.24,0,0,0-1.58-.66l-15.57-.12A2.25,2.25,0,0,0,171.33,344.85Z"/><rect class="cls-7" x="172.17" y="346.14" width="65.62" height="39.21" transform="translate(2.68 -1.49) rotate(0.42)"/><path class="cls-5" d="M167.07,349.38l4.71,40.93a1.46,1.46,0,0,0,1.43,1.28l63.95.47a1.45,1.45,0,0,0,1.45-1.33l3.52-40.86a1.46,1.46,0,0,0-1.43-1.58l-72.18-.52A1.45,1.45,0,0,0,167.07,349.38Z"/><path class="cls-4" d="M216.19,362.75s.23.11.59.41a9.3,9.3,0,0,1,1.36,1.55A10.93,10.93,0,0,1,220,372a13.84,13.84,0,0,1-5.64,9.6,13.17,13.17,0,0,1-6.25,2.51,12.67,12.67,0,0,1-12.26-6.48,12.29,12.29,0,0,1-1.37-6.6,13.23,13.23,0,0,1,5.32-9.74,15.41,15.41,0,0,1,7-2.93,13.6,13.6,0,0,1,2.05-.14c.47,0,.72,0,.72.08s-1,.1-2.69.46a16.15,16.15,0,0,0-6.59,3.11,12.74,12.74,0,0,0-3.24,3.78,12.38,12.38,0,0,0-1.57,5.44,11.42,11.42,0,0,0,1.31,6.06,11.62,11.62,0,0,0,4.76,4.63A11.43,11.43,0,0,0,208,383.1a12.24,12.24,0,0,0,5.8-2.27,13.17,13.17,0,0,0,5.46-8.9,10.92,10.92,0,0,0-1.45-7C216.89,363.45,216.12,362.82,216.19,362.75Z"/><path class="cls-4" d="M204.28,354.5c.21-.38,2.62,1.31,5.38,3.63l.46.39-.46.4-.34.3c-2.89,2.51-5.38,4.37-5.57,4.15s2-2.42,4.89-4.94l.34-.29v.78c-1.37-1.18-2.57-2.26-3.41-3.06A7.51,7.51,0,0,1,204.28,354.5Z"/></g><g id="Device_1" data-name="Device 1"><path class="cls-4" d="M50.58,211.86l-39.87-4.63A8.73,8.73,0,0,1,3,197.56L14.57,97.88a8.74,8.74,0,0,1,9.7-7.65l39.86,4.63a8.73,8.73,0,0,1,7.68,9.67L60.27,204.21A8.74,8.74,0,0,1,50.58,211.86Z"/><path class="cls-1" d="M63.69,98.3,56,97.4a1.94,1.94,0,0,0-2.1,1.74l-.16,1.4a1.94,1.94,0,0,1-2.11,1.74l-15.06-1.76a1.92,1.92,0,0,1-1.65-2.17L35,97a1.93,1.93,0,0,0-1.65-2.17l-2.72-.32-6.77-.79A6.1,6.1,0,0,0,17.12,99L5.85,196.33a6.11,6.11,0,0,0,5.38,6.77L51,207.72a6.12,6.12,0,0,0,6.79-5.36l11.27-97.29A6.11,6.11,0,0,0,63.69,98.3Z"/><rect class="cls-7" x="6.1" y="109.44" width="33" height="22.24" transform="translate(-5.91 1.26) rotate(-2.82)"/><path class="cls-2" d="M38.53,108.64a8.79,8.79,0,0,1-1.14,1.19l-3.24,3.11c-2.76,2.62-6.6,6.2-10.87,10.15l-.16.14-.17-.12-.24-.17c-4.78-3.45-9.08-6.58-12.18-8.88l-3.66-2.73a12.31,12.31,0,0,1-1.29-1.06,10.42,10.42,0,0,1,1.41.89l3.76,2.6c3.15,2.22,7.49,5.31,12.26,8.75l.24.18-.32,0c4.27-3.95,8.15-7.49,11-10l3.35-3A11.36,11.36,0,0,1,38.53,108.64Z"/><path class="cls-2" d="M6.67,132.48a75.22,75.22,0,0,1,5.11-7.14,74.33,74.33,0,0,1,5.53-6.83,75.22,75.22,0,0,1-5.11,7.14A74.63,74.63,0,0,1,6.67,132.48Z"/><path class="cls-2" d="M28.25,117.7a70.82,70.82,0,0,1,5.88,6.41,70.54,70.54,0,0,1,5.5,6.75,73.39,73.39,0,0,1-5.89-6.41A74.38,74.38,0,0,1,28.25,117.7Z"/><rect class="cls-5" x="31.16" y="131.3" width="38.66" height="57.36" transform="translate(-116.36 177.39) rotate(-78.44)"/><path class="cls-4" d="M82.46,146.78a2.88,2.88,0,0,1-.62.4l-1.85,1L73.15,152l-22.7,12.34-.19.1-.14-.16-.33-.4L33.07,143.74l-5-6.15-1.34-1.69a3.13,3.13,0,0,1-.44-.61,5.08,5.08,0,0,1,.52.55l1.42,1.62,5.15,6,16.83,20.07.33.39-.32-.06L73,151.69l6.92-3.63,1.89-1A4.3,4.3,0,0,1,82.46,146.78Z"/><path class="cls-4" d="M18.52,173.17c-.09-.11,5.2-4.44,11.81-9.66s12-9.38,12.13-9.26-5.2,4.44-11.81,9.66S18.61,173.28,18.52,173.17Z"/><path class="cls-4" d="M61.24,157.59c.13-.06,3.25,5.95,7,13.42s6.64,13.59,6.51,13.65-3.25-5.94-7-13.42S61.11,157.66,61.24,157.59Z"/></g><g id="Arrows"><path class="cls-4" d="M115.71,333.34a9.87,9.87,0,0,1-1.52-.38c-.49-.14-1.1-.31-1.82-.53l-2.44-.86a92.38,92.38,0,0,1-14.84-7.15c-3-1.76-6.2-3.86-9.53-6.25S78.82,313,75.39,310a142.27,142.27,0,0,1-10.26-10.18,151.57,151.57,0,0,1-9.76-12.06,145.16,145.16,0,0,1-8.31-13.11,133,133,0,0,1-6.31-13,126.2,126.2,0,0,1-7.25-23.34A130.4,130.4,0,0,1,31.22,222c-.08-1.92-.14-3.42-.18-4.47a8.08,8.08,0,0,1,0-1.56,10.15,10.15,0,0,1,.2,1.55c.09,1,.21,2.54.38,4.45a144.94,144.94,0,0,0,2.59,16.19,131,131,0,0,0,7.41,23.12A138.8,138.8,0,0,0,48,274.12a146.69,146.69,0,0,0,8.27,13,151.35,151.35,0,0,0,9.67,12c3.33,3.69,6.76,7.06,10.14,10.15s6.79,5.78,10,8.23,6.43,4.52,9.39,6.31a101.5,101.5,0,0,0,14.62,7.4l2.4.94,1.77.63A9.71,9.71,0,0,1,115.71,333.34Z"/><path class="cls-4" d="M107.06,335.61c0-.28,4.42-1.21,10-2.1l-.32.85-.17-.22c-3.66-4.5-6.44-8.3-6.22-8.48s3.37,3.32,7,7.83l.17.21.57.7-.89.14C111.64,335.41,107.1,335.89,107.06,335.61Z"/><path class="cls-4" d="M348.78,160.52s.07.14.17.43.24.74.41,1.29.4,1.28.63,2.12.44,1.83.71,2.93a108.18,108.18,0,0,1,2.45,19c.19,4.06.18,8.51,0,13.28s-.72,9.85-1.54,15.15a166.41,166.41,0,0,1-3.4,16.49,172.44,172.44,0,0,1-5.56,17.21,166.78,166.78,0,0,1-7.49,16.46c-1.41,2.56-2.74,5.1-4.24,7.48s-2.94,4.72-4.42,7a147.73,147.73,0,0,1-18.15,21.95A150.87,150.87,0,0,1,293.86,314l-4.24,3-1.12.77a2,2,0,0,1-.4.23s.11-.12.34-.32l1.06-.85,4.11-3.19a171.06,171.06,0,0,0,14.18-12.84,151.58,151.58,0,0,0,17.87-22c1.46-2.23,3-4.5,4.37-6.93s2.79-4.9,4.19-7.45a160,160,0,0,0,13-33.45c1.49-5.61,2.59-11.11,3.44-16.37s1.32-10.33,1.63-15.06.31-9.16.17-13.2a118.35,118.35,0,0,0-2.12-19l-.61-2.94c-.21-.83-.39-1.55-.53-2.13s-.23-1-.31-1.32A1.61,1.61,0,0,1,348.78,160.52Z"/><path class="cls-4" d="M356.51,167.51c-.21.19-3.94-3.6-8.38-8.51l.89-.18-.1.3c-2.07,6.44-4,11.59-4.24,11.5s1.18-5.38,3.25-11.82l.1-.3.27-.86.61.67C353.33,163.23,356.72,167.32,356.51,167.51Z"/><path class="cls-4" d="M277.89,55.42a3.09,3.09,0,0,1-.5-.33l-1.42-1-2.27-1.7c-.9-.67-2-1.33-3.23-2.13a121.3,121.3,0,0,0-22-11c-4.87-1.84-10.27-3.66-16.18-5.29-2.95-.81-6-1.6-9.19-2.3-1.59-.35-3.21-.69-4.86-1-.82-.16-1.65-.31-2.48-.45l-2.54-.31a155.4,155.4,0,0,0-44.57,0A168.23,168.23,0,0,0,125.7,42.12,162.61,162.61,0,0,0,94,60.21L91,62.49c-1,.75-2,1.45-2.84,2.24-1.78,1.52-3.47,3-5,4.3L82,70l-1,1-2,1.93-3.47,3.38-4.49,5-1.18,1.28a2.52,2.52,0,0,1-.44.42,3.54,3.54,0,0,1,.35-.48l1.11-1.35,4.35-5.13,3.42-3.46,2-2,1-1,1.15-1,5-4.39c.86-.8,1.84-1.51,2.83-2.27l3-2.32a159.81,159.81,0,0,1,31.71-18.38A166.85,166.85,0,0,1,168.47,29a154.71,154.71,0,0,1,44.85,0l2.56.33c.85.14,1.68.29,2.51.46,1.66.31,3.28.67,4.88,1,3.19.72,6.27,1.53,9.23,2.36,5.91,1.67,11.33,3.54,16.21,5.44a115.42,115.42,0,0,1,22,11.29c1.2.83,2.3,1.52,3.18,2.22l2.22,1.78L277.45,55A2.58,2.58,0,0,1,277.89,55.42Z"/><path class="cls-4" d="M69.68,72.63c.28,0-.2,5.33-1.07,11.89L67.89,84l.3-.12c6.25-2.59,11.4-4.48,11.51-4.21s-4.86,2.58-11.11,5.17l-.3.12-.84.35.13-.9C68.46,77.82,69.4,72.59,69.68,72.63Z"/></g></g></svg>