<svg xmlns="http://www.w3.org/2000/svg" viewBox="0 0 541.77 440.97"><defs><style>.cls-1{fill:#f5f5f5;}.cls-2{fill:#e0e0e0;}.cls-3{opacity:0.2;}.cls-4{fill:#11487c;}.cls-5{opacity:0.5;}.cls-6{fill:#fff;}.cls-7{fill:#263238;}</style></defs><title>Recurso 1</title><g id="Capa_2" data-name="Capa 2"><g id="Background_Complete" data-name="Background Complete"><rect class="cls-1" x="43.86" y="143.03" width="134.99" height="198.77" transform="translate(-115.97 102.83) rotate(-33.78)"/><polygon class="cls-2" points="164.75 279.66 163.47 287.54 107.69 279.5 108.97 271.62 164.75 279.66"/><polygon class="cls-2" points="136.66 251.55 144.66 252.7 135.78 307.62 127.78 306.46 136.66 251.55"/><path class="cls-2" d="M85.28,181.75c.08.11-11.17,7.78-25.11,17.1s-25.33,16.8-25.41,16.68,11.16-7.78,25.12-17.11S85.2,181.63,85.28,181.75Z"/><path class="cls-2" d="M126.54,171.39c.08.12-18.62,12.76-41.76,28.24s-42,27.93-42.05,27.82,18.61-12.77,41.76-28.25S126.46,171.27,126.54,171.39Z"/><path class="cls-2" d="M134.81,183.75c.08.12-18.62,12.77-41.76,28.25s-42,27.93-42,27.81,18.62-12.76,41.76-28.25S134.73,183.63,134.81,183.75Z"/><path class="cls-2" d="M143.08,196.12c.08.12-18.61,12.77-41.76,28.24s-42,27.94-42,27.82S77.89,239.41,101,223.93,143,196,143.08,196.12Z"/><path class="cls-2" d="M151.36,208.49c.08.12-18.62,12.76-41.76,28.24s-42,27.93-42.06,27.81,18.62-12.76,41.77-28.24S151.28,208.37,151.36,208.49Z"/><rect class="cls-1" x="391.56" y="254.35" width="113.37" height="166.93" transform="translate(-112.15 306.23) rotate(-33.78)"/><polygon class="cls-2" points="493.08 369.1 492.01 375.72 445.17 368.97 446.24 362.35 493.08 369.1"/><polygon class="cls-2" points="469.49 345.49 476.21 346.46 468.76 392.58 462.04 391.61 469.49 345.49"/><path class="cls-2" d="M426.34,286.87c.08.12-9.35,6.57-21.06,14.4s-21.28,14.1-21.36,14,9.35-6.57,21.07-14.41S426.26,286.75,426.34,286.87Z"/><path class="cls-2" d="M461,278.17c.08.12-15.61,10.76-35.05,23.76s-35.26,23.44-35.34,23.32,15.61-10.75,35.05-23.76S460.92,278.05,461,278.17Z"/><path class="cls-2" d="M468,288.56c.08.12-15.62,10.75-35.05,23.75s-35.26,23.45-35.34,23.33,15.61-10.76,35.05-23.76S467.87,288.44,468,288.56Z"/><path class="cls-2" d="M474.89,298.94c.08.12-15.61,10.76-35.05,23.76S404.58,346.14,404.5,346s15.61-10.75,35.05-23.75S474.81,298.82,474.89,298.94Z"/><path class="cls-2" d="M481.84,309.33c.08.12-15.62,10.75-35,23.75s-35.26,23.45-35.34,23.33,15.61-10.76,35.05-23.76S481.76,309.21,481.84,309.33Z"/><rect class="cls-1" x="188.13" y="90.69" width="116.6" height="171.69" transform="translate(112.38 -95.35) rotate(28.14)"/><polygon class="cls-2" points="239.75 232.37 233.22 234.6 216.67 188.83 223.19 186.59 239.75 232.37"/><polygon class="cls-2" points="249.75 199.53 252.13 206.1 206.67 221.67 204.29 215.1 249.75 199.53"/><path class="cls-2" d="M282.05,132c-.08.15-10.51-5.27-23.29-12.1s-23.08-12.5-23-12.65,10.51,5.27,23.29,12.1S282.13,131.84,282.05,132Z"/><path class="cls-2" d="M306.72,159.23c-.08.15-17.34-8.93-38.54-20.27s-38.34-20.66-38.26-20.81,17.34,8.92,38.55,20.27S306.8,159.08,306.72,159.23Z"/><path class="cls-2" d="M300.66,170.56c-.08.15-17.34-8.92-38.54-20.26s-38.34-20.67-38.26-20.82,17.34,8.93,38.55,20.27S300.74,170.41,300.66,170.56Z"/><path class="cls-2" d="M294.6,181.89c-.08.15-17.34-8.92-38.54-20.26S217.72,141,217.8,140.82s17.34,8.92,38.55,20.26S294.68,181.74,294.6,181.89Z"/><path class="cls-2" d="M288.54,193.22c-.08.15-17.34-8.92-38.54-20.26s-38.34-20.66-38.26-20.81,17.34,8.92,38.55,20.26S288.62,193.07,288.54,193.22Z"/><rect class="cls-3" x="286.5" width="2.58" height="43.98"/></g><g id="Lamp"><path class="cls-4" d="M227.56,97.19H348S336.9,44,286.88,44C242.38,44,227.56,97.19,227.56,97.19Z"/><rect class="cls-4" x="286.5" width="2.58" height="43.98"/></g><g id="Folder"><path class="cls-4" d="M191.28,234.54l-35.36,181.8-4.63,23.8L387.36,439c10.59-.05,20-9.46,23.39-23.44l41.86-171.63c2.59-10.61-3.09-21.65-11.13-21.64l-238.93.25C197.28,222.53,192.66,227.45,191.28,234.54Z"/><g class="cls-5"><path d="M191.28,234.54l-35.36,181.8-4.63,23.8L387.36,439c10.59-.05,20-9.46,23.39-23.44l41.86-171.63c2.59-10.61-3.09-21.65-11.13-21.64l-238.93.25C197.28,222.53,192.66,227.45,191.28,234.54Z"/></g><path class="cls-4" d="M364.71,404l-25-201.41c-1-8.25-7.6-14.41-15.36-14.38l-54.81.17a15,15,0,0,0-10.82,4.8l-26,27.67-152.42.79C71,221.72,63.8,230.54,65,240.44L88.25,426.59c1,8.24,7.58,14.39,15.34,14.38l265.64-.53c29.59.61,32.41-8.12,32.41-8.12C367.74,439.83,364.72,404.05,364.71,404Z"/><g class="cls-5"><polygon class="cls-6" points="250.17 363.72 241.21 373.34 172.21 311.26 181.17 301.64 250.17 363.72"/><polygon class="cls-6" points="237.45 299.51 247.36 308.42 184.92 375.47 175.02 366.56 237.45 299.51"/></g></g><g id="Speech_Bubble" data-name="Speech Bubble"><path class="cls-4" d="M389,161.37a1.87,1.87,0,0,1-1.13-1.63l-.4-9.29a1.91,1.91,0,0,1,.68-1.52,1.86,1.86,0,0,1,1.62-.37,5.8,5.8,0,0,0,4.51-.9,5.22,5.22,0,0,0,2.34-3.42,5.36,5.36,0,0,0-1.13-4,5.88,5.88,0,0,0-3.94-2.37,7,7,0,0,0-7.1,5,1.86,1.86,0,1,1-3.6-1,10.75,10.75,0,0,1,11.13-7.77,9.62,9.62,0,0,1,6.49,3.83,9.09,9.09,0,0,1,1.83,6.87,9,9,0,0,1-3.95,5.92,9.78,9.78,0,0,1-5.06,1.65l.31,7.16a1.85,1.85,0,0,1-1.78,1.94A1.87,1.87,0,0,1,389,161.37Z"/><path class="cls-4" d="M391.69,165.16a1.53,1.53,0,1,1-1.63-1.41A1.53,1.53,0,0,1,391.69,165.16Z"/><path class="cls-7" d="M356.82,148.28a5.14,5.14,0,0,0,.09-.61c0-.43.11-1,.2-1.79a19.84,19.84,0,0,1,.48-2.87c.13-.56.2-1.18.4-1.81l.63-2a34.22,34.22,0,0,1,5-9.53,33.51,33.51,0,0,1,31-13.05c.76.07,1.52.28,2.29.41a14.28,14.28,0,0,1,2.3.56,31.42,31.42,0,0,1,8.94,4.05,33.44,33.44,0,0,1,13.22,16.6,32.47,32.47,0,0,1,2,11.41,32,32,0,0,1-2.09,11.74l-.45,1.14-.06.15.06.14q3.76,8.67,7.35,16.94l.42-.48-15-5.76-.19-.07-.14.14a33.5,33.5,0,0,1-14.15,8.17,33.31,33.31,0,0,1-27-4.19,34.54,34.54,0,0,1-8.43-7.85,37.25,37.25,0,0,1-4.61-8.36,37.77,37.77,0,0,1-1.79-7c-.11-1-.22-1.84-.31-2.6s0-1.38-.05-1.91,0-.88,0-1.17a2.12,2.12,0,0,0,0-.4,1.71,1.71,0,0,0,0,.4c0,.29,0,.68,0,1.17v1.92c.07.77.16,1.64.26,2.63a33,33,0,0,0,6.3,15.56,34.48,34.48,0,0,0,8.49,8,33.7,33.7,0,0,0,27.41,4.37,33.86,33.86,0,0,0,14.42-8.28l-.33.07,15,5.78.76.29-.34-.77c-2.38-5.49-4.83-11.16-7.34-16.94v.3l.46-1.17a32.75,32.75,0,0,0,2.14-12A33.12,33.12,0,0,0,422,138a34,34,0,0,0-13.51-16.91,32.37,32.37,0,0,0-9.11-4.1,17.45,17.45,0,0,0-2.35-.56c-.78-.13-1.55-.34-2.33-.41a35.61,35.61,0,0,0-13.29.92,34.3,34.3,0,0,0-18.08,12.5,34,34,0,0,0-4.92,9.68l-.6,2a18.32,18.32,0,0,0-.38,1.84,19,19,0,0,0-.42,2.9c-.06.76-.1,1.36-.13,1.8A5.58,5.58,0,0,0,356.82,148.28Z"/></g></g></svg>