<svg xmlns="http://www.w3.org/2000/svg" viewBox="0 0 455.25 500.25"><defs><style>.cls-1{fill:#ebebeb;}.cls-2{fill:#e0e0e0;}.cls-3{fill:#f5f5f5;}.cls-4{fill:#fafafa;}.cls-5{fill:#fff;}.cls-6{fill:#263238;}.cls-7{fill:#11487c;}.cls-8{opacity:0.3;}.cls-9{fill:#455a64;}</style></defs><title>Recurso 1</title><g id="Capa_2" data-name="Capa 2"><g id="Background_Complete" data-name="Background Complete"><path class="cls-1" d="M416.31,410.21c5-2.57,10.85-2.9,16.37-2,3,.5,6.07,1.38,8.09,3.62s2.41,6.15.09,8.07a7.7,7.7,0,0,1-5.1,1.29c-4.33-.05-9.13-.81-12.59,1.8-2,1.48-3.29,3.95-5.65,4.68a5.55,5.55,0,0,1-6.13-2.73,9.49,9.49,0,0,1-.7-7A10.74,10.74,0,0,1,416.31,410.21Z"/><path class="cls-1" d="M404.9,388.19c3,4.35,9,2.91,11.71.25s3.9-6.5,5-10.17c2.41-8.39,4.84-17.18,3.05-25.72a14.34,14.34,0,0,0-3.28-7,7.49,7.49,0,0,0-7.08-2.36c-3,.79-4.84,3.72-6.18,6.5A61.28,61.28,0,0,0,402,376c0,4.23.49,8.68,2.88,12.18"/><path class="cls-1" d="M396.54,394.43c3.3-3.93,3.93-9.65,2.46-14.57s-4.8-9.1-8.63-12.51a46.54,46.54,0,0,0-15.45-9.12,16.61,16.61,0,0,0-6.94-1.18,7.3,7.3,0,0,0-5.83,3.53c-1.63,3.1-.07,6.86,1.61,9.93A118.21,118.21,0,0,0,373.91,386c3,3.92,6.53,7.79,11.16,9.56s9.45,1.57,11.91-1.65"/><path class="cls-2" d="M404.69,453.8a9.18,9.18,0,0,0,.28-2c.14-1.44.31-3.25.52-5.4a77.79,77.79,0,0,1,1.22-7.91,60.79,60.79,0,0,1,2.87-9.34,34.74,34.74,0,0,1,4.77-8.45,17.87,17.87,0,0,1,6-5,16.8,16.8,0,0,1,5.08-1.58,8.82,8.82,0,0,0,2-.29,10.26,10.26,0,0,0-2,0,15.39,15.39,0,0,0-5.29,1.38,17.75,17.75,0,0,0-6.36,5.06,33.41,33.41,0,0,0-4.94,8.62,56.51,56.51,0,0,0-2.86,9.49,66.58,66.58,0,0,0-1.05,8c-.17,2.29-.24,4.14-.27,5.43A9.63,9.63,0,0,0,404.69,453.8Z"/><path class="cls-2" d="M405.06,449.65a3.69,3.69,0,0,0,.06-.92c0-.68,0-1.55,0-2.62,0-2.27,0-5.57.12-9.64.2-8.13.9-16.88,2.25-29.23,1.28-11.6,3-25.11,4.82-33.89.39-2,.78-3.8,1.15-5.37s.65-2.94.94-4,.45-1.88.61-2.55a3.71,3.71,0,0,0,.16-.9,5,5,0,0,0-.32.86l-.76,2.51c-.34,1.09-.68,2.44-1.08,4s-.84,3.36-1.27,5.36a300.42,300.42,0,0,0-5.06,31.45c-1.36,12.37-2,23.63-2,31.78,0,4.08,0,7.38.14,9.66.07,1.06.12,1.93.16,2.62A5.05,5.05,0,0,0,405.06,449.65Z"/><path class="cls-2" d="M405.12,427.93a16.39,16.39,0,0,0,0-2.74,74.58,74.58,0,0,0-.84-7.42A100.15,100.15,0,0,0,401.85,407a89,89,0,0,0-4.53-12.79A67.93,67.93,0,0,0,384,373.48a33.46,33.46,0,0,0-3.12-2.91c-.48-.4-.9-.8-1.34-1.13l-1.21-.83a19,19,0,0,0-2.3-1.48c-.13.18,3.26,2.18,7.56,6.75a71.84,71.84,0,0,1,12.95,20.6,101.21,101.21,0,0,1,4.54,12.68,107.18,107.18,0,0,1,2.57,10.71c.57,3.08.9,5.6,1.09,7.35A17.89,17.89,0,0,0,405.12,427.93Z"/><polygon class="cls-1" points="382.67 462.95 384.85 492.76 423.15 492.76 425.33 462.95 382.67 462.95"/><rect class="cls-1" x="378.97" y="451.19" width="50.93" height="11.75"/><polygon class="cls-2" points="378.97 491.62 378.97 494.88 381.36 494.88 429.06 494.88 429.06 491.62 378.97 491.62"/><polygon class="cls-2" points="383.71 500.25 381.36 494.52 427.24 494.52 424.5 500.25 383.71 500.25"/><path class="cls-3" d="M424.62,472.69s-.05.1-.18.28l-.57.75-2.23,2.86-.1.13-.1-.14L416,469h.31l-5.39,7.65-.17.23-.19-.22c-2-2.37-4.16-4.94-6.4-7.62h.37l-.36.44-5.72,7.18-.19.24-.18-.25-5.4-7.64H393l-6.65,7.58-.12.13-.09-.15c-.88-1.47-1.58-2.65-2.08-3.5l-.54-.93a1.16,1.16,0,0,1-.16-.33s.08.09.22.29l.59.9,2.19,3.44-.21,0,6.54-7.67.17-.19.15.2c1.65,2.32,3.49,4.87,5.45,7.61h-.37l5.71-7.19.35-.44.18-.23.19.23,6.39,7.63h-.36l5.45-7.6.16-.22.15.22,5.37,7.66h-.19c1-1.18,1.75-2.11,2.32-2.79l.62-.72C424.53,472.76,424.61,472.68,424.62,472.69Z"/><path class="cls-3" d="M425.86,462.75c0,.13-9.6.24-21.43.24s-21.44-.11-21.44-.24,9.6-.24,21.44-.24S425.86,462.62,425.86,462.75Z"/><rect class="cls-2" x="77.3" y="245.18" width="7.52" height="56.3" transform="translate(-192.26 354.39) rotate(-90)"/><path class="cls-4" d="M60.58,269.88c.2,0,.36,1.58.36,3.52s-.16,3.53-.36,3.53-.35-1.58-.35-3.53S60.39,269.88,60.58,269.88Z"/><path class="cls-4" d="M59.36,269.72c.19,0,.35,1.58.35,3.53s-.16,3.52-.35,3.52-.36-1.58-.36-3.52S59.16,269.72,59.36,269.72Z"/><path class="cls-4" d="M104.86,269.88c.2,0,.36,1.58.36,3.52s-.16,3.53-.36,3.53-.35-1.58-.35-3.53S104.67,269.88,104.86,269.88Z"/><path class="cls-4" d="M103.64,269.72c.19,0,.35,1.58.35,3.53s-.16,3.52-.35,3.52-.36-1.58-.36-3.52S103.44,269.72,103.64,269.72Z"/><path class="cls-4" d="M96.28,273.55c0,.2-6.45.36-14.4.36s-14.4-.16-14.4-.36,6.45-.35,14.4-.35S96.28,273.36,96.28,273.55Z"/><rect class="cls-2" x="73.3" y="282.8" width="15.04" height="56.3" transform="translate(-230.13 391.77) rotate(-90)"/><path class="cls-4" d="M109.69,314.24s-.09.07-.3.18-.52.25-.94.43a16.68,16.68,0,0,1-3.82,1.09,9.92,9.92,0,0,1-6.19-.88,8.17,8.17,0,0,1-2.94-2.67,6.2,6.2,0,0,1-1-4.33,4.57,4.57,0,0,1,1-2.24,3,3,0,0,1,2.37-1.08,3.38,3.38,0,0,1,2.39,1.29,4.66,4.66,0,0,1,1.09,2.56,6.82,6.82,0,0,1-1.94,5.33A8.55,8.55,0,0,1,94,316.57a14.24,14.24,0,0,1-6.28-.78,11.48,11.48,0,0,1-5.49-3.69A6,6,0,0,1,81,308.85a4.22,4.22,0,0,1,1.2-3.37,2.74,2.74,0,0,1,1.76-.78,3.29,3.29,0,0,1,1.84.52,4.88,4.88,0,0,1,2.07,3,7.06,7.06,0,0,1-2.22,6.62,11.06,11.06,0,0,1-6.34,2.58,15.45,15.45,0,0,1-6.57-.65,9,9,0,0,1-5-3.88,6.66,6.66,0,0,1-.62-6A3.13,3.13,0,0,1,69.37,305a3.64,3.64,0,0,1,2.84.68,4.71,4.71,0,0,1,1.34,5.07,8.78,8.78,0,0,1-2.84,4,12.77,12.77,0,0,1-7.72,3,12.4,12.4,0,0,1-6.12-1.39A12.18,12.18,0,0,1,53.69,314a9.14,9.14,0,0,1-.68-.79,1.19,1.19,0,0,1-.2-.29A14.4,14.4,0,0,0,57,316.12a12.13,12.13,0,0,0,6,1.24,12.44,12.44,0,0,0,7.42-3A8.35,8.35,0,0,0,73,310.61a4.17,4.17,0,0,0-1.17-4.45,3.08,3.08,0,0,0-2.37-.56,2.51,2.51,0,0,0-1.84,1.6,6,6,0,0,0,.61,5.39,8.44,8.44,0,0,0,4.66,3.59,15.17,15.17,0,0,0,6.28.59,10.4,10.4,0,0,0,5.94-2.41,6.39,6.39,0,0,0,2-5.94,4.19,4.19,0,0,0-1.75-2.6,2.17,2.17,0,0,0-2.75.17,3.5,3.5,0,0,0-1,2.82,5.34,5.34,0,0,0,1.13,2.87,10.93,10.93,0,0,0,5.15,3.47,13.65,13.65,0,0,0,6,.77,8,8,0,0,0,5-2.42,6.22,6.22,0,0,0,1.81-4.84,3.57,3.57,0,0,0-2.92-3.37,2.43,2.43,0,0,0-1.95.88,4,4,0,0,0-.93,2,5.77,5.77,0,0,0,.9,4,7.89,7.89,0,0,0,2.76,2.56,9.83,9.83,0,0,0,6,1,17.88,17.88,0,0,0,3.8-1C109.25,314.4,109.68,314.22,109.69,314.24Z"/><rect class="cls-1" x="70.29" y="264.72" width="26.1" height="51.27" transform="translate(-207.02 373.69) rotate(-90)"/><path class="cls-2" d="M66.22,278.2c.19,0,.35,5.66.35,12.63s-.16,12.63-.35,12.63-.36-5.65-.36-12.63S66,278.2,66.22,278.2Z"/><path class="cls-2" d="M70.1,277.88c.2,0,.36,5.58.36,12.47s-.16,12.47-.36,12.47-.35-5.59-.35-12.47S69.91,277.88,70.1,277.88Z"/><path class="cls-2" d="M103.18,277c.19,0,.35,5.88.35,13.13s-.16,13.13-.35,13.13-.36-5.88-.36-13.13S103,277,103.18,277Z"/><path class="cls-2" d="M98.61,277.39c.19,0,.35,5.73.35,12.79S98.8,303,98.61,303s-.36-5.73-.36-12.8S98.41,277.39,98.61,277.39Z"/><path class="cls-2" d="M139.81,18.53a.63.63,0,0,1-.22-.06l-.63-.25-2.38-1-8.74-3.75L99.09,1l-1-.44h.21L70.13,12.57,61.6,16.15l-2.32,1a7.41,7.41,0,0,1-.83.3,6.77,6.77,0,0,1,.79-.4l2.28-1L70,12.24,98.09,0l.11,0,.1.05,1,.43L128,13.15,136.66,17,139,18.12l.6.3Z"/><rect class="cls-2" y="14.41" width="184.66" height="138.26"/><rect class="cls-4" x="6.46" y="20.83" width="172.44" height="126.15"/><path class="cls-2" d="M44.54,76s.18,21.18,1.26,27.64l26.56-1.26S70,81.52,70.93,76Z"/><path class="cls-5" d="M57.63,79s0,0,.09,0l.29,0a7,7,0,0,1,1.11.06,6.23,6.23,0,0,1,1.69.5,5.5,5.5,0,0,1,1.83,1.46,5.67,5.67,0,0,1,1,5.84,10.42,10.42,0,0,1-.75,1.64A17.06,17.06,0,0,0,62,90.07,14.13,14.13,0,0,0,61,93.84v.09h-.09l-2.62,0L55.5,94h-.1v-.1a7.91,7.91,0,0,0-1.28-3.63c-.32-.55-.67-1.06-1-1.57a17.31,17.31,0,0,1-.94-1.52A5.15,5.15,0,0,1,51.78,84a7,7,0,0,1,1-2.65,5.08,5.08,0,0,1,1.73-1.55,6.18,6.18,0,0,1,1.63-.63A6.33,6.33,0,0,1,57.25,79h.28c.06,0,.1,0,.1,0h-.1l-.28,0a8.09,8.09,0,0,0-1.07.21,6.4,6.4,0,0,0-1.6.65,5,5,0,0,0-1.67,1.54,6.78,6.78,0,0,0-1,2.6,5,5,0,0,0,.42,3.13,16.56,16.56,0,0,0,.93,1.5c.33.51.68,1,1,1.57a8,8,0,0,1,1.31,3.73l-.1-.1,2.75,0,2.63,0-.1.09A14.21,14.21,0,0,1,61.87,90a16.54,16.54,0,0,1,.86-1.68,9.59,9.59,0,0,0,.74-1.6,6,6,0,0,0,.29-3.19A6.27,6.27,0,0,0,62.54,81a5.44,5.44,0,0,0-1.78-1.44,6.1,6.1,0,0,0-1.65-.53A9.65,9.65,0,0,0,58,79h-.38Z"/><path class="cls-5" d="M59,93.7a.73.73,0,0,1,0-.08l0-.25c0-.22-.08-.54-.14-1-.12-.82-.3-2-.42-3.5,0-.37,0-.76-.07-1.17s0-.83,0-1.27a3.34,3.34,0,0,1,.3-1.33,2,2,0,0,1,1-1,1.37,1.37,0,0,1,1.45.27,1.08,1.08,0,0,1,.31.73,1.34,1.34,0,0,1-.28.76,1.71,1.71,0,0,1-.64.52,3.41,3.41,0,0,1-.78.26,9.4,9.4,0,0,1-1.68.19,8.63,8.63,0,0,1-1.69-.08,2.91,2.91,0,0,1-.8-.23,2.08,2.08,0,0,1-.67-.47,1.64,1.64,0,0,1-.38-.71,1.26,1.26,0,0,1,.09-.79,1.09,1.09,0,0,1,.56-.54,1,1,0,0,1,.75,0,1.41,1.41,0,0,1,.57.48,2.22,2.22,0,0,1,.28.66,7.19,7.19,0,0,1,.13,1.36c.05.87.09,1.69.13,2.43.08,1.49.14,2.69.18,3.52,0,.42,0,.74,0,1v.34a.62.62,0,0,0,0-.09v-.25c0-.22,0-.54-.06-.95,0-.84-.12-2-.21-3.52,0-.75-.08-1.56-.13-2.44a7.82,7.82,0,0,0-.14-1.34,2.07,2.07,0,0,0-.27-.63,1.33,1.33,0,0,0-.54-.46.87.87,0,0,0-.69,0,1,1,0,0,0-.52.5,1.18,1.18,0,0,0-.08.74,1.46,1.46,0,0,0,.36.67,2.41,2.41,0,0,0,1.43.68,10.34,10.34,0,0,0,3.33-.11,3.33,3.33,0,0,0,.77-.26,1.62,1.62,0,0,0,.61-.49,1.24,1.24,0,0,0,.26-.71.94.94,0,0,0-.29-.67,1.27,1.27,0,0,0-1.36-.26,1.93,1.93,0,0,0-1,1,3.36,3.36,0,0,0-.29,1.3c0,.44,0,.86,0,1.27s0,.79.06,1.16c.11,1.49.28,2.68.39,3.51.06.41.1.73.13,1l0,.24A.62.62,0,0,1,59,93.7Z"/><path class="cls-5" d="M55.49,93.84a6.26,6.26,0,0,1,.07.88c0,.64.07,1.41.12,2.3l0,0L57.45,99l-.1,0,2.07-.12-.09,0,1-1.26.52-.63,0,.08c0-1.21-.05-2.36-.08-3.4l.12.1-3.86,0H55.49a1.87,1.87,0,0,1,.37,0l1.09,0,3.93-.16H61v.11c0,1,.07,2.19.11,3.4v.05l0,0-.52.62-1,1.26,0,0h-.06l-2.06.1h-.06l0,0c-.63-.77-1.23-1.47-1.75-2.09l0,0v0c0-.92,0-1.7,0-2.36S55.48,93.83,55.49,93.84Z"/><path class="cls-5" d="M60.83,96.83a1.57,1.57,0,0,1-.2-.08,3.41,3.41,0,0,0-.53-.21,5.4,5.4,0,0,0-1.87-.29,5.24,5.24,0,0,0-1.85.4c-.22.09-.4.18-.52.24l-.19.1.17-.12a3.42,3.42,0,0,1,.52-.27,4.82,4.82,0,0,1,1.87-.43,5.21,5.21,0,0,1,1.89.31,4.08,4.08,0,0,1,.53.24Z"/><path class="cls-5" d="M60.83,96s-.07,0-.2-.08a4.84,4.84,0,0,0-.53-.21,5.4,5.4,0,0,0-1.87-.29,5.73,5.73,0,0,0-1.85.4,4.32,4.32,0,0,0-.52.25.94.94,0,0,1-.19.09l.17-.12a4.66,4.66,0,0,1,.52-.27,5,5,0,0,1,1.87-.43,5.11,5.11,0,0,1,1.88.31,5.33,5.33,0,0,1,.54.24Z"/><path class="cls-5" d="M60.78,95.22l-.2-.09c-.12,0-.3-.13-.53-.21a5.42,5.42,0,0,0-1.87-.28,5.24,5.24,0,0,0-1.85.4c-.22.09-.4.18-.52.24l-.19.1.17-.13a5.78,5.78,0,0,1,.52-.27,5,5,0,0,1,1.87-.42,4.81,4.81,0,0,1,1.89.31,3.06,3.06,0,0,1,.53.24A.6.6,0,0,1,60.78,95.22Z"/><path class="cls-1" d="M15,41.33S15.14,62.51,16.22,69l26.56-1.26s-2.33-20.82-1.44-26.38Z"/><path class="cls-5" d="M37.34,50.23a76.76,76.76,0,0,1-8.89.79,77.28,77.28,0,0,1-8.93.28,75.34,75.34,0,0,1,8.89-.8A75.81,75.81,0,0,1,37.34,50.23Z"/><path class="cls-5" d="M37.35,54.71a75.67,75.67,0,0,1-8.9.8,75.8,75.8,0,0,1-8.93.27,77.4,77.4,0,0,1,8.9-.79A77.26,77.26,0,0,1,37.35,54.71Z"/><path class="cls-5" d="M32.83,59.12a25.62,25.62,0,0,1-5.06.56,25.46,25.46,0,0,1-5.09,0,24.44,24.44,0,0,1,5.06-.57A24.15,24.15,0,0,1,32.83,59.12Z"/><path class="cls-1" d="M13.7,103.64s.18,21.17,1.26,27.63L41.52,130s-2.33-20.82-1.43-26.38Z"/><path class="cls-5" d="M36.08,112.53a75.34,75.34,0,0,1-8.89.8,75.81,75.81,0,0,1-8.93.27,76.8,76.8,0,0,1,8.9-.79A77.11,77.11,0,0,1,36.08,112.53Z"/><path class="cls-5" d="M36.09,117a76.76,76.76,0,0,1-8.89.79,77.28,77.28,0,0,1-8.93.28,78,78,0,0,1,8.89-.8A75.81,75.81,0,0,1,36.09,117Z"/><path class="cls-5" d="M31.58,121.42a24.6,24.6,0,0,1-5.07.57,24.15,24.15,0,0,1-5.09,0,25.76,25.76,0,0,1,5.06-.56A25.55,25.55,0,0,1,31.58,121.42Z"/><polygon class="cls-1" points="86.29 46.94 88.92 108.03 165.18 108.94 161.75 47.75 86.29 46.94"/><rect class="cls-3" x="85.41" y="46.51" width="75.74" height="57.2"/><path class="cls-2" d="M161.15,103.7s0-.37,0-1.06,0-1.73,0-3c0-2.68,0-6.59-.06-11.57,0-10-.06-24.25-.11-41.51l.21.21-75.73.05h0l.26-.26c0,20.57,0,40,0,57.19l-.23-.23,54.64.11,15.54.07,4.13,0,1.06,0h.37l-.34,0h-1l-4.09,0-15.48.06-54.79.12h-.23v-.24c0-17.15,0-36.62,0-57.19v-.26h.27l75.73,0h.22v.22c-.05,17.32-.09,31.63-.11,41.64,0,5,0,8.85-.06,11.52,0,1.31,0,2.32,0,3S161.15,103.7,161.15,103.7Z"/><rect class="cls-3" x="94.55" y="58.62" width="30.71" height="38.64"/><path class="cls-2" d="M125.25,97.27a1.78,1.78,0,0,1,0-.2v-.55c0-.51,0-1.21,0-2.11,0-1.87,0-4.55-.06-7.93,0-6.8-.07-16.43-.12-27.86l.23.24-30.7,0c-.06.06.49-.49.26-.25h0v5.3c0,1.75,0,3.49,0,5.2v10c0,6.49,0,12.57,0,18.1l-.21-.22,22.23.11,6.24.06,1.65,0,.58,0-.53,0-1.62,0-6.19.06-22.36.11h-.22v-.21c0-5.53,0-11.61,0-18.1,0-3.25,0-6.59,0-10V58.64h0c-.24.23.31-.33.26-.27l30.7,0h.24v.23c0,11.49-.09,21.17-.12,28,0,3.36-.05,6-.06,7.88,0,.88,0,1.57,0,2.06v.53C125.26,97.21,125.26,97.27,125.25,97.27Z"/><rect class="cls-3" x="95.72" y="49.78" width="58.84" height="5.57"/><path class="cls-2" d="M154.57,55.35a3.18,3.18,0,0,1,0-.38q0-.4,0-1.08,0-1.45-.06-4.11l.11.11C144.64,50,122,50,95.73,50h0l.26-.26h0v5.55l-.26-.26,41.71.11,12.52.08,3.41,0,.89,0,.32,0-.28,0h-.86l-3.35,0-12.46.08-41.9.11h-.26V49.8h0c.12-.11-.26.26.26-.26h0c26.29,0,48.91.06,58.84.16h.11v.1c0,1.79,0,3.19-.06,4.17,0,.44,0,.79,0,1A2.06,2.06,0,0,1,154.57,55.35Z"/><rect class="cls-3" x="129.01" y="58.62" width="25.56" height="23.29"/><path class="cls-2" d="M154.57,81.91a2.86,2.86,0,0,1,0-.45c0-.32,0-.74,0-1.26,0-1.14,0-2.74-.06-4.75,0-4.1-.07-9.88-.11-16.83l.22.22-25.56,0c-.06.06.49-.49.26-.25h0v6.25q0,3.08,0,6c0,3.9,0,7.6,0,11l-.23-.23,18.44.12,5.23.06,1.39,0,.5,0a2.29,2.29,0,0,1-.45,0l-1.35,0-5.18.06L129,82.14h-.23v-.23c0-3.42,0-7.12,0-11q0-2.94,0-6V58.63h0c-.23.23.32-.32.26-.27l25.56,0h.22v.22c0,7-.09,12.84-.11,17,0,2-.05,3.57-.06,4.7,0,.51,0,.91,0,1.22A2.78,2.78,0,0,1,154.57,81.91Z"/><rect class="cls-3" x="129.01" y="85.56" width="25.56" height="11.7"/><path class="cls-2" d="M154.57,97.27a7.81,7.81,0,0,1,0-.85c0-.59,0-1.37-.05-2.35,0-2.07-.06-5-.1-8.51l.19.19L129,85.82c-.23.24.32-.31.26-.25h0v6c0,2,0,3.85,0,5.67L129,97l18.28.12,5.32.07,1.44,0,.52,0a2.49,2.49,0,0,1-.46,0l-1.39,0-5.27.07L129,97.51h-.25v-.25c0-1.82,0-3.72,0-5.67v-6h0c-.06.05.5-.5.26-.27l25.56.08h.19v.18c0,3.6-.08,6.53-.1,8.62,0,1,0,1.73,0,2.31S154.58,97.28,154.57,97.27Z"/><path class="cls-5" d="M124.49,58.69C115,71.82,104.05,84.14,94.55,97.27"/><path class="cls-2" d="M94.55,97.27s.07-.16.25-.43l.8-1.18c.7-1,1.75-2.47,3.07-4.24,2.64-3.55,6.42-8.35,10.65-13.6s8-10,10.75-13.51l3.21-4.13.88-1.12a2,2,0,0,1,.33-.37s-.07.16-.25.43l-.8,1.18c-.7,1-1.75,2.46-3.07,4.24-2.64,3.55-6.42,8.35-10.65,13.6s-8,10-10.75,13.5l-3.21,4.14-.88,1.12A2,2,0,0,1,94.55,97.27Z"/><line class="cls-5" x1="94.55" y1="58.62" x2="125.25" y2="97.27"/><path class="cls-2" d="M125.25,97.27c-.11.09-7.08-8.49-15.55-19.16S94.43,58.71,94.55,58.62s7.07,8.49,15.55,19.16S125.37,97.18,125.25,97.27Z"/><circle class="cls-2" cx="84.12" cy="58.71" r="4.8"/><path class="cls-2" d="M167.49,47.05a4.81,4.81,0,1,1-4.81-4.81A4.8,4.8,0,0,1,167.49,47.05Z"/><rect class="cls-2" x="352.52" y="129.87" width="8.38" height="41.7" transform="translate(-0.8 1.91) rotate(-0.31)"/><rect class="cls-1" x="279.87" y="130.02" width="21.7" height="23.02" transform="translate(-0.75 1.56) rotate(-0.31)"/><rect class="cls-3" x="301.47" y="129.9" width="21.7" height="23.02" transform="translate(-0.75 1.67) rotate(-0.31)"/><path class="cls-2" d="M279.84,136.44c14.42.11,28.88,0,43.3-.2a.23.23,0,0,0,0-.46c-14.42-.08-28.88,0-43.3.26a.2.2,0,0,0,0,.4Z"/><rect class="cls-1" x="266.32" y="152.7" width="39.43" height="18.76" transform="translate(-0.86 1.54) rotate(-0.31)"/><rect class="cls-3" x="305.57" y="152.49" width="39.43" height="18.76" transform="matrix(1, -0.01, 0.01, 1, -0.86, 1.74)"/><path class="cls-2" d="M266.3,158c26.2.29,52.48,0,78.67-.39a.23.23,0,0,0,0-.46c-26.19-.14-52.48-.13-78.67.45a.2.2,0,0,0,0,.4Z"/><rect class="cls-2" x="251.56" y="171.57" width="152.76" height="6.72"/><rect class="cls-2" x="276.57" y="174.8" width="6.2" height="22.93"/><rect class="cls-2" x="369.14" y="174.8" width="6.2" height="22.93"/><rect class="cls-1" x="360.74" y="114.32" width="8.38" height="57.35" transform="translate(-0.76 1.96) rotate(-0.31)"/><rect class="cls-3" x="369.16" y="125.01" width="13.02" height="46.48" transform="matrix(1, -0.01, 0.01, 1, -0.79, 2.02)"/><path class="cls-2" d="M382,133.93a92.25,92.25,0,0,1-13,0,96.43,96.43,0,0,1,13,0Z"/><path class="cls-2" d="M382,132a92.25,92.25,0,0,1-13,0,92.25,92.25,0,0,1,13,0Z"/><path class="cls-2" d="M382,164.46a92.25,92.25,0,0,1-13,0,96.43,96.43,0,0,1,13,0Z"/><path class="cls-2" d="M382,162.51a92.25,92.25,0,0,1-13,0,92.25,92.25,0,0,1,13,0Z"/><path class="cls-2" d="M375.67,158.25c-.13,0-.23-4.69-.23-10.47s.1-10.47.23-10.47.22,4.68.22,10.47S375.79,158.25,375.67,158.25Z"/><rect class="cls-1" x="382.11" y="136.39" width="14.17" height="35.08"/><path class="cls-4" d="M389.6,162.38a3,3,0,0,1-3.17-3.16,2.74,2.74,0,0,1,1.15-2.37l.32.45a2.27,2.27,0,0,0-.93,1.92,2.63,2.63,0,0,0,5.26,0,2.27,2.27,0,0,0-.93-1.92l.32-.45a2.79,2.79,0,0,1,1.15,2.37A3.05,3.05,0,0,1,389.6,162.38Z"/><path class="cls-4" d="M392,156l-.47-.27a3.68,3.68,0,0,0,.75-2.25c0-1.31-.47-1.84-1.17-1.84-1.82,0-.48,4.14-2.93,4.14-.94,0-1.71-.79-1.71-2.37a3.84,3.84,0,0,1,.61-2.14l.48.27a3.25,3.25,0,0,0-.56,1.88c0,1.22.5,1.76,1.17,1.76,1.87,0,.55-4.14,2.93-4.14,1,0,1.71.87,1.71,2.46A3.88,3.88,0,0,1,392,156Z"/><path class="cls-4" d="M392,150.27l-.47-.27a3.68,3.68,0,0,0,.75-2.25c0-1.32-.47-1.84-1.17-1.84-1.82,0-.48,4.13-2.93,4.13-.94,0-1.71-.79-1.71-2.36a3.84,3.84,0,0,1,.61-2.14l.48.27a3.25,3.25,0,0,0-.56,1.88c0,1.22.5,1.76,1.17,1.76,1.87,0,.55-4.14,2.93-4.14,1,0,1.71.87,1.71,2.46A3.88,3.88,0,0,1,392,150.27Z"/><circle class="cls-2" cx="364.65" cy="124.09" r="2.41"/><rect class="cls-2" x="363.91" y="130.72" width="1.49" height="34.12"/><path class="cls-3" d="M151.1,489.21c-1.69-1.44-5.46-6-2.55-11.37,1.06-2,3.33-2.93,5.37-3.79a22,22,0,0,0,5.9-3.06c3.2-2.72,4.08-7.24,6.2-10.86,2.44-4.17,7-7.29,11.79-7.07,5.5.25,10.09,4.74,12.17,9.87s2.15,10.81,2.19,16.34c0,3.06-.11,6.51-2.36,8.57-2.07,1.91-5.18,1.93-8,1.84l-30.06-.92"/><path class="cls-2" d="M208.6,406.55H129.54l14.24,84.92a9.49,9.49,0,0,0,6.75,7.56l.28.07c.23.06.46.14.7.18a9.45,9.45,0,0,0,1.61.19v.08l.39-.06h35.23a10.29,10.29,0,0,0,1.94-.19,9.54,9.54,0,0,0,8-8.3l6.86-58.51.31-2.33h0L208.55,407Zm-14.92,54.17h-8.11l.82-24.65h9.4Zm2.9-24.65h7.76l-2.89,24.65h-7ZM173.4,488l-.5-21.41h11.69L183.88,488Zm-12.63-21.41h11.35l.49,21.41H162.43Zm.87,21.41h-9.52c-.9-5.78-2.08-13.3-3.35-21.41H160Zm-1.33-27.32-1.92-24.65h13l.57,24.65Zm12.46,0-.57-24.65h13.4l-.82,24.65Zm-.71-30.56-.52-22.82h15l-.76,22.82Zm-.78,0H157.93l-1.77-22.82h14.59Zm-14.13,0H143c-.5-3.15-1-6.14-1.4-8.82-1.47-9.23-2-12.7-2.33-14h16.08Zm.45,5.91,1.92,24.65H147.84q-.59-3.77-1.19-7.57c-.91-5.81-1.83-11.63-2.69-17.08Zm-10.55,24.65h-7.63l-4.14-24.65h7.88C144.37,443.69,145.7,452.16,147.05,460.72Zm.93,5.91c1.16,7.4,2.3,14.71,3.35,21.41H144l-3.59-21.41ZM184.66,488l.71-21.41h7.81L191.35,488Zm1.92-57.88.76-22.82h10.9l-2,22.82Zm-48-22.82c.31,1.65,1.76,10.63,3.69,22.82h-7.94l-3.82-22.82ZM198.25,488h-6.11L194,466.63h6.79ZM205,430.16h-8L199,407.34h8.68Z"/></g><g id="Floor"><line class="cls-6" x1="16.11" y1="499.54" x2="455.25" y2="499.54"/><path class="cls-6" d="M455.25,499.54c0,.15-98.31.27-219.56.27s-219.58-.12-219.58-.27,98.3-.26,219.58-.26S455.25,499.4,455.25,499.54Z"/></g><g id="Plant"><path class="cls-6" d="M71.25,476.34a1.64,1.64,0,0,1,.15-.34c.11-.25.26-.58.46-1a25,25,0,0,0,1.36-4,34.83,34.83,0,0,0-.12-15.28,80.56,80.56,0,0,0-2.83-10.26c-1.2-3.64-2.59-7.5-3.73-11.68A45.42,45.42,0,0,1,64.7,420.4c.17-4.76,1.58-9.5,3.13-14.22s3.14-9.35,3.61-14a21.3,21.3,0,0,0-2.56-12.93c-2-3.77-4.63-7-6.55-10.34A35.77,35.77,0,0,1,58.39,359a36.91,36.91,0,0,1-.25-15.4,28.43,28.43,0,0,1,1.61-5.44s0,.12-.1.36l-.33,1a39.44,39.44,0,0,0-1,4.07,37.41,37.41,0,0,0,.4,15.29,35.78,35.78,0,0,0,4,9.81c1.92,3.31,4.51,6.52,6.6,10.34a21.8,21.8,0,0,1,2.64,13.19c-.48,4.73-2.09,9.38-3.63,14.1s-2.93,9.41-3.11,14.08a44.78,44.78,0,0,0,1.8,13.3c1.12,4.16,2.49,8,3.68,11.67a81.66,81.66,0,0,1,2.79,10.33,34.72,34.72,0,0,1,0,15.39A23.13,23.13,0,0,1,72,475.05l-.51,1A1.5,1.5,0,0,1,71.25,476.34Z"/><path class="cls-7" d="M64.94,372.21S61,359.69,68.05,352.36a.44.44,0,0,1,.75.21C69.17,354.64,69.64,360.94,64.94,372.21Z"/><path class="cls-6" d="M67.29,356.53a11.79,11.79,0,0,1-.26,2.31c-.26,1.59-.56,3.46-.9,5.52s-.62,3.93-.87,5.52a13.17,13.17,0,0,1-.42,2.29,10.46,10.46,0,0,1,.07-2.33c.13-1.43.38-3.4.74-5.56s.73-4.1,1-5.51A10,10,0,0,1,67.29,356.53Z"/><path class="cls-7" d="M69.54,401.73s2.4-12.89,12-16.09a.44.44,0,0,1,.56.54C81.5,388.18,79,394,69.54,401.73Z"/><path class="cls-6" d="M79,389a11.58,11.58,0,0,1-1.31,1.92l-3.38,4.46c-1.25,1.68-2.39,3.19-3.35,4.47a12.44,12.44,0,0,1-1.44,1.83,10,10,0,0,1,1.15-2c.79-1.21,1.93-2.83,3.25-4.57s2.57-3.29,3.49-4.38A10.9,10.9,0,0,1,79,389Z"/><path class="cls-7" d="M66.94,434.09s-1.45-13,6.84-18.89a.43.43,0,0,1,.69.35C74.44,417.65,73.7,423.92,66.94,434.09Z"/><path class="cls-6" d="M72.23,419.15a10.66,10.66,0,0,1-.7,2.21c-.55,1.52-1.21,3.29-1.93,5.25s-1.36,3.74-1.91,5.26a12.8,12.8,0,0,1-.84,2.16,9.48,9.48,0,0,1,.51-2.27c.4-1.38,1-3.26,1.78-5.32s1.5-3.89,2.07-5.2A10.62,10.62,0,0,1,72.23,419.15Z"/><path class="cls-7" d="M74.2,466.63s-1-13.08,7.51-18.63a.43.43,0,0,1,.67.37C82.28,450.47,81.32,456.71,74.2,466.63Z"/><path class="cls-6" d="M80,451.89a10.28,10.28,0,0,1-.78,2.19l-2.11,5.18c-.79,1.93-1.5,3.68-2.1,5.18a12.56,12.56,0,0,1-.92,2.13,9.32,9.32,0,0,1,.59-2.25c.45-1.37,1.14-3.23,2-5.25s1.64-3.83,2.26-5.13A10.22,10.22,0,0,1,80,451.89Z"/><path class="cls-7" d="M59.32,361.21S47.69,355.14,47.46,345a.44.44,0,0,1,.68-.38C49.87,345.81,54.66,349.92,59.32,361.21Z"/><path class="cls-6" d="M49.88,348.47a12.31,12.31,0,0,1,1.45,1.82l3.27,4.53,3.29,4.52a13,13,0,0,1,1.33,1.91,9.41,9.41,0,0,1-1.6-1.69c-.92-1.1-2.14-2.67-3.41-4.45s-2.39-3.42-3.17-4.62A9.81,9.81,0,0,1,49.88,348.47Z"/><path class="cls-7" d="M71.8,388.09s-12-5.35-12.81-15.47a.43.43,0,0,1,.65-.41C61.44,373.29,66.47,377.11,71.8,388.09Z"/><path class="cls-6" d="M61.61,376a10.75,10.75,0,0,1,1.55,1.72L66.71,382l3.56,4.31a13,13,0,0,1,1.44,1.82,9.28,9.28,0,0,1-1.7-1.59c-1-1-2.3-2.54-3.68-4.23s-2.59-3.27-3.44-4.42A10,10,0,0,1,61.61,376Z"/><path class="cls-7" d="M64.91,418.08s-8.22-10.22-4.36-19.61a.43.43,0,0,1,.77-.07C62.42,400.19,65.16,405.88,64.91,418.08Z"/><path class="cls-6" d="M61.36,402.63a10.9,10.9,0,0,1,.6,2.25c.35,1.58.75,3.42,1.19,5.47s.86,3.88,1.2,5.46a12.15,12.15,0,0,1,.45,2.27,9.52,9.52,0,0,1-.78-2.19c-.4-1.38-.89-3.3-1.35-5.44s-.82-4.09-1.05-5.5A10.9,10.9,0,0,1,61.36,402.63Z"/><path class="cls-7" d="M73.06,453.38s-11.89-5.56-12.56-15.69a.43.43,0,0,1,.66-.4C62.94,438.41,67.91,442.31,73.06,453.38Z"/><path class="cls-6" d="M63.07,441.07a11.82,11.82,0,0,1,1.52,1.75l3.48,4.39,3.48,4.37A13.68,13.68,0,0,1,73,453.42a9.13,9.13,0,0,1-1.67-1.62c-1-1.06-2.25-2.57-3.61-4.29s-2.54-3.31-3.36-4.48A10,10,0,0,1,63.07,441.07Z"/><path class="cls-6" d="M96.73,401.8a1.29,1.29,0,0,1,0,.29c0,.23,0,.51,0,.84,0,.79-.08,1.85-.14,3.18-.15,2.8-.37,6.7-.62,11.36h0v0c-.84,4.74-3.26,10-6.51,15.11-2.38,3.77-4.88,7.19-7,10.37a72.47,72.47,0,0,0-5.27,8.71,36.83,36.83,0,0,0-2.47,6.4c-.21.78-.37,1.39-.46,1.81a2.42,2.42,0,0,1-.17.63,2.92,2.92,0,0,1,.08-.65c.06-.42.18-1,.37-1.84a33.35,33.35,0,0,1,2.34-6.5,69.72,69.72,0,0,1,5.2-8.82c2.14-3.2,4.63-6.63,7-10.37,3.23-5.08,5.63-10.26,6.51-14.93v0c.32-4.66.6-8.55.79-11.34.11-1.33.2-2.39.26-3.18,0-.33.06-.6.09-.83S96.71,401.8,96.73,401.8Z"/><path class="cls-7" d="M89.65,431.64s5-12.12-1.3-20.05a.43.43,0,0,0-.76.14C87,413.76,86,420,89.65,431.64Z"/><path class="cls-6" d="M88.73,415.81a9.67,9.67,0,0,1,.4,2.29c.18,1.43.38,3.4.54,5.58s.23,4.17.23,5.6a10.54,10.54,0,0,1-.14,2.33,12,12,0,0,1-.21-2.32c-.11-1.6-.23-3.49-.37-5.58s-.28-4-.39-5.58A12.53,12.53,0,0,1,88.73,415.81Z"/><g class="cls-8"><path d="M89.65,431.64s5-12.12-1.3-20.05a.43.43,0,0,0-.76.14C87,413.76,86,420,89.65,431.64Z"/></g><path class="cls-7" d="M74.06,460.83s4-12.48-2.92-19.88a.43.43,0,0,0-.74.21C70,443.22,69.47,449.51,74.06,460.83Z"/><path class="cls-6" d="M71.87,445.13a11,11,0,0,1,.58,2.25c.29,1.4.65,3.35,1,5.52s.57,4.13.69,5.56a10.3,10.3,0,0,1,0,2.33,11.32,11.32,0,0,1-.4-2.29c-.23-1.59-.51-3.46-.82-5.53s-.6-3.94-.84-5.53A10.68,10.68,0,0,1,71.87,445.13Z"/><g class="cls-8"><path d="M74.06,460.83s4-12.48-2.92-19.88a.43.43,0,0,0-.74.21C70,443.22,69.47,449.51,74.06,460.83Z"/></g><path class="cls-7" d="M96.06,416.83s10.75-7.52,9.66-17.61a.43.43,0,0,0-.72-.29C103.44,400.34,99.22,405,96.06,416.83Z"/><g class="cls-8"><path d="M96.06,416.83s10.75-7.52,9.66-17.61a.43.43,0,0,0-.72-.29C103.44,400.34,99.22,405,96.06,416.83Z"/></g><path class="cls-6" d="M103.78,403a10.27,10.27,0,0,1-.9,2.14c-.61,1.3-1.5,3.07-2.54,5s-2,3.64-2.81,4.85a9.48,9.48,0,0,1-1.36,1.88,11.57,11.57,0,0,1,1.06-2.06l2.68-4.91,2.67-4.91A11.22,11.22,0,0,1,103.78,403Z"/><path class="cls-7" d="M78.4,448.45s13-2,16.43-11.56a.43.43,0,0,0-.52-.57C92.29,436.9,86.43,439.26,78.4,448.45Z"/><g class="cls-8"><path d="M78.4,448.45s13-2,16.43-11.56a.43.43,0,0,0-.52-.57C92.29,436.9,86.43,439.26,78.4,448.45Z"/></g><path class="cls-6" d="M91.42,439.42A10.74,10.74,0,0,1,89.68,441c-1.13.89-2.7,2.09-4.49,3.36s-3.43,2.37-4.66,3.12a10.25,10.25,0,0,1-2,1.09,11.92,11.92,0,0,1,1.86-1.38l4.57-3.23,4.56-3.24A12.11,12.11,0,0,1,91.42,439.42Z"/><polygon class="cls-9" points="66.03 472.31 62.25 497.75 85.81 497.75 82.76 472.31 66.03 472.31"/><path class="cls-6" d="M83.7,480.19a91.6,91.6,0,0,1-9.5.24,91.6,91.6,0,0,1-9.5-.24,89.79,89.79,0,0,1,9.5-.25A89.79,89.79,0,0,1,83.7,480.19Z"/><path class="cls-6" d="M84.17,482.21a95.91,95.91,0,0,1-9.81.25,96,96,0,0,1-9.82-.25c0-.13,4.4-.24,9.82-.24S84.17,482.08,84.17,482.21Z"/></g><g id="Box"><path class="cls-7" d="M332.58,447l-1.4,25.64a1.72,1.72,0,0,1-1.71,1.64l-46.16.34a1.73,1.73,0,0,1-1.74-1.72l-.15-20a1.74,1.74,0,0,1,1.73-1.75l28.39,0a1.73,1.73,0,0,0,1.22-.51l4.9-4.9a1.72,1.72,0,0,1,1.21-.5l12-.09A1.73,1.73,0,0,1,332.58,447Z"/><path class="cls-8" d="M332.58,447l-1.4,25.64a1.72,1.72,0,0,1-1.71,1.64l-46.16.34a1.73,1.73,0,0,1-1.74-1.72l-.15-20a1.74,1.74,0,0,1,1.73-1.75l28.39,0a1.73,1.73,0,0,0,1.22-.51l4.9-4.9a1.72,1.72,0,0,1,1.21-.5l12-.09A1.73,1.73,0,0,1,332.58,447Z"/><rect class="cls-3" x="281.5" y="447.98" width="50.43" height="30.14" transform="translate(616.81 923.84) rotate(179.58)"/><path class="cls-7" d="M335.85,450.47l-3.62,31.45a1.13,1.13,0,0,1-1.1,1l-49.15.36a1.11,1.11,0,0,1-1.11-1l-2.71-31.41a1.11,1.11,0,0,1,1.1-1.2l55.47-.41A1.11,1.11,0,0,1,335.85,450.47Z"/><path class="cls-7" d="M346.16,442.15l-1.4,25.65a1.72,1.72,0,0,1-1.71,1.63l-46.16.34a1.73,1.73,0,0,1-1.74-1.72l-.15-20a1.73,1.73,0,0,1,1.73-1.75l28.39,0a1.69,1.69,0,0,0,1.22-.51l4.9-4.89a1.69,1.69,0,0,1,1.21-.51l12-.09A1.74,1.74,0,0,1,346.16,442.15Z"/><path class="cls-8" d="M346.16,442.15l-1.4,25.65a1.72,1.72,0,0,1-1.71,1.63l-46.16.34a1.73,1.73,0,0,1-1.74-1.72l-.15-20a1.73,1.73,0,0,1,1.73-1.75l28.39,0a1.69,1.69,0,0,0,1.22-.51l4.9-4.89a1.69,1.69,0,0,1,1.21-.51l12-.09A1.74,1.74,0,0,1,346.16,442.15Z"/><rect class="cls-3" x="295.08" y="443.14" width="50.43" height="30.14" transform="matrix(-1, 0.01, -0.01, -1, 643.93, 914.06)"/><path class="cls-7" d="M349.43,445.63l-3.62,31.45a1.12,1.12,0,0,1-1.1,1l-49.15.36a1.11,1.11,0,0,1-1.11-1L291.74,446a1.11,1.11,0,0,1,1.1-1.21l55.47-.41A1.12,1.12,0,0,1,349.43,445.63Z"/><path class="cls-8" d="M349.43,445.63l-3.62,31.45a1.12,1.12,0,0,1-1.1,1l-49.15.36a1.11,1.11,0,0,1-1.11-1L291.74,446a1.11,1.11,0,0,1,1.1-1.21l55.47-.41A1.12,1.12,0,0,1,349.43,445.63Z"/><path class="cls-7" d="M361.46,448.15l-1.39,25.65a1.73,1.73,0,0,1-1.72,1.64l-46.15.34a1.75,1.75,0,0,1-1.75-1.72l-.14-20a1.72,1.72,0,0,1,1.73-1.74l28.38,0a1.72,1.72,0,0,0,1.22-.5l4.9-4.9a1.77,1.77,0,0,1,1.21-.51l12-.08A1.72,1.72,0,0,1,361.46,448.15Z"/><rect class="cls-3" x="310.38" y="449.15" width="50.43" height="30.14" transform="translate(674.58 925.96) rotate(179.58)"/><path class="cls-7" d="M364.73,451.64l-3.62,31.45a1.11,1.11,0,0,1-1.1,1l-49.14.36a1.12,1.12,0,0,1-1.12-1L307,452a1.13,1.13,0,0,1,1.11-1.21l55.47-.4A1.1,1.1,0,0,1,364.73,451.64Z"/><path class="cls-9" d="M307,455.91v43.63H370V455.91Zm20.55,7.85a3.22,3.22,0,0,1,3.22-3.22h15.4a3.23,3.23,0,1,1,0,6.45h-15.4A3.23,3.23,0,0,1,327.59,463.76Z"/><path class="cls-6" d="M273.11,455.91v43.63H307V455.91Z"/></g><g id="Device_3" data-name="Device 3"><rect class="cls-6" x="268.94" y="243.1" width="112.82" height="74.61" rx="1.52" ry="1.52"/><path class="cls-6" d="M264.22,312.19H386.45a0,0,0,0,1,0,0v0a6.53,6.53,0,0,1-6.53,6.53H270.75a6.53,6.53,0,0,1-6.53-6.53v0A0,0,0,0,1,264.22,312.19Z"/><rect class="cls-9" x="271.96" y="246.07" width="106.45" height="63"/><polygon class="cls-9" points="314.22 312.19 315.74 314.6 337.08 314.6 338.49 312.19 314.22 312.19"/><rect class="cls-1" x="274.16" y="248.2" width="102.28" height="60.67" rx="3.27" ry="3.27"/><rect class="cls-4" x="274.16" y="252.64" width="102.28" height="56.22"/><path class="cls-6" d="M282.54,250.54a.82.82,0,0,1-.81.82.82.82,0,1,1,0-1.64A.82.82,0,0,1,282.54,250.54Z"/><path class="cls-6" d="M277.59,250.54a.82.82,0,0,1-.81.82.82.82,0,1,1,0-1.64A.82.82,0,0,1,277.59,250.54Z"/><path class="cls-6" d="M280,250.54a.82.82,0,0,1-.82.82.82.82,0,0,1,0-1.64A.82.82,0,0,1,280,250.54Z"/><path class="cls-9" d="M380.78,312.19s-25,.07-55.92.07-55.92,0-55.92-.07,25-.07,55.92-.07S380.78,312.15,380.78,312.19Z"/><rect class="cls-2" x="281.24" y="280.97" width="23.34" height="1.56"/><rect class="cls-2" x="311.39" y="259.29" width="23.34" height="1.56"/><path class="cls-2" d="M369.44,265.1s-13,.08-29,.08-29,0-29-.08,13-.07,29-.07S369.44,265.06,369.44,265.1Z"/><path class="cls-2" d="M369.44,268.51s-13,.08-29,.08-29,0-29-.08,13-.07,29-.07S369.44,268.47,369.44,268.51Z"/><path class="cls-2" d="M369.44,271.92s-13,.08-29,.08-29,0-29-.08,13-.07,29-.07S369.44,271.88,369.44,271.92Z"/><path class="cls-2" d="M369.44,275.33s-13,.08-29,.08-29,0-29-.08,13-.07,29-.07S369.44,275.29,369.44,275.33Z"/><path class="cls-2" d="M369.44,278.74s-13,.07-29,.07-29,0-29-.07,13-.07,29-.07S369.44,278.7,369.44,278.74Z"/><path class="cls-2" d="M334.05,282.15s-5.07.07-11.33.07-11.33,0-11.33-.07,5.07-.07,11.33-.07S334.05,282.11,334.05,282.15Z"/><path class="cls-2" d="M369,288.77s-8.54.07-19.08.07-19.08,0-19.08-.07,8.54-.08,19.08-.08S369,288.73,369,288.77Z"/><path class="cls-2" d="M369,292.39s-8.54.07-19.08.07-19.08,0-19.08-.07,8.54-.08,19.08-.08S369,292.35,369,292.39Z"/><path class="cls-2" d="M369,296s-8.54.07-19.08.07-19.08,0-19.08-.07,8.54-.08,19.08-.08S369,296,369,296Z"/><path class="cls-2" d="M369,299.62s-8.54.08-19.08.08-19.08,0-19.08-.08,8.54-.07,19.08-.07S369,299.58,369,299.62Z"/><path class="cls-2" d="M304.64,288.42s-5.09.07-11.37.07-11.37,0-11.37-.07,5.09-.07,11.37-.07S304.64,288.38,304.64,288.42Z"/><path class="cls-2" d="M304.64,291.26s-5.09.08-11.37.08-11.37,0-11.37-.08,5.09-.07,11.37-.07S304.64,291.22,304.64,291.26Z"/><path class="cls-2" d="M304.64,294.11s-5.09.07-11.37.07-11.37,0-11.37-.07S287,294,293.27,294,304.64,294.07,304.64,294.11Z"/><path class="cls-2" d="M304.64,297s-5.09.07-11.37.07-11.37,0-11.37-.07,5.09-.08,11.37-.08S304.64,296.91,304.64,297Z"/><path class="cls-2" d="M304.64,299.79s-5.09.07-11.37.07-11.37,0-11.37-.07,5.09-.07,11.37-.07S304.64,299.75,304.64,299.79Z"/><rect class="cls-3" x="311.38" y="287.04" width="16.56" height="16.02"/><polygon class="cls-1" points="312.66 301.69 317.24 293.45 320.99 298.72 323.26 295.92 326.65 301.69 312.66 301.69"/><path class="cls-1" d="M322.58,291.84a1.19,1.19,0,1,1-1.19-1.19A1.19,1.19,0,0,1,322.58,291.84Z"/><path class="cls-1" d="M326.65,301.74v-.26c0-.17,0-.41,0-.72,0-.63,0-1.55,0-2.72,0-2.34,0-5.67,0-9.67l.07.06-14,0s.15-.15.08-.08h0v7c0,2.24,0,4.36,0,6.32l-.07-.07,10.12,0,2.85,0h0l-2.84,0-10.16,0h-.07v-.06c0-2,0-4.08,0-6.32v-7h0l.08-.08h14.06v.07c0,4,0,7.36,0,9.71,0,1.16,0,2.08,0,2.71,0,.3,0,.54,0,.71v.18A.15.15,0,0,1,326.65,301.74Z"/><rect class="cls-3" x="281.68" y="256.62" width="22.46" height="21.73"/><polygon class="cls-2" points="283.43 276.49 289.64 265.31 294.72 272.46 297.81 268.66 302.4 276.49 283.43 276.49"/><path class="cls-2" d="M296.89,263.14a1.62,1.62,0,1,1-1.62-1.62A1.62,1.62,0,0,1,296.89,263.14Z"/><path class="cls-2" d="M302.4,276.55v-.08c0-.07,0-.15,0-.26s0-.56,0-1c0-.86,0-2.1,0-3.69,0-3.17,0-7.69-.05-13.12l.09.09-19,0,.1-.1h0V268c0,3,0,5.92,0,8.56l-.09-.09,13.72.05,3.87,0h1l-1,0-3.85,0-13.78,0h-.1v-.1c0-2.64,0-5.52,0-8.56v-9.55h0l.11-.11h19.06v.09c0,5.45,0,10,0,13.18,0,1.58,0,2.81,0,3.67,0,.41,0,.73,0,1v.25S302.4,276.56,302.4,276.55Z"/><rect class="cls-4" x="303.26" y="259.16" width="43.06" height="43.07"/><path class="cls-6" d="M346.32,302.22a1.66,1.66,0,0,1,0-.21v-.6c0-.56,0-1.33,0-2.33,0-2.05,0-5-.06-8.78,0-7.54-.07-18.27-.11-31.14l.22.22-43.06,0,.26-.26v11.62q0,5.7,0,11.13c0,7.23,0,14,0,20.31l-.22-.22,31.15.11,8.77.06,2.33,0h.81s-.06,0-.18,0h-.58l-2.29,0-8.72.06-31.29.12H303v-.23c0-6.26,0-13.08,0-20.31q0-5.43,0-11.13V259.16c-.24.23.31-.32.26-.26l43.06,0h.23v.23c-.05,12.93-.09,23.71-.12,31.29,0,3.74,0,6.68-.06,8.72l0,2.29V302C346.33,302.16,346.33,302.23,346.32,302.22Z"/><path class="cls-7" d="M335.4,276.3l-5.46-6.79a.65.65,0,0,0-1.12.17l-.88,2.32c-9.61-2.86-14.86,5.5-14.86,5.5l3.66,2.58c4-6.18,9.71-4.18,9.71-4.18l-.78,2a.65.65,0,0,0,.72.87l8.61-1.44A.65.65,0,0,0,335.4,276.3Z"/><path class="cls-7" d="M333.48,284.38c-3.73,5.4-8.61,4.26-9.63,3.95l1.1-2.62a.3.3,0,0,0-.32-.41l-9.85,1.34a.29.29,0,0,0-.2.47l6,7.93a.31.31,0,0,0,.52-.06l1.17-2.8c9.39,3,14.83-5.09,14.83-5.09Z"/><path class="cls-6" d="M346.17,263.57c0,.15-9.61.26-21.46.26s-21.47-.11-21.47-.26,9.61-.26,21.47-.26S346.17,263.43,346.17,263.57Z"/><path class="cls-6" d="M305.5,261.4a.38.38,0,1,1-.38-.38A.38.38,0,0,1,305.5,261.4Z"/><path class="cls-6" d="M306.69,261.4a.38.38,0,0,1-.38.38.38.38,0,1,1,0-.76A.38.38,0,0,1,306.69,261.4Z"/><path class="cls-6" d="M307.87,261.4a.38.38,0,1,1-.38-.38A.38.38,0,0,1,307.87,261.4Z"/></g><g id="Device_2" data-name="Device 2"><path class="cls-7" d="M261.9,213.88h-119a3.72,3.72,0,0,0-3.71,3.72v84.06a3.71,3.71,0,0,0,3.71,3.71h45.68s2.9,9-6.1,13.64h42.71s-10.17-3.49-7.56-13.64H261.9a3.71,3.71,0,0,0,3.72-3.71V217.6A3.72,3.72,0,0,0,261.9,213.88Z"/><path class="cls-6" d="M204,296.53a2.29,2.29,0,0,1-3.23,3.23.64.64,0,0,1-.2-.2,2.29,2.29,0,0,1,3.23-3.23Z"/><path class="cls-6" d="M144.26,215.42H260.54a3,3,0,0,1,3,3V290a0,0,0,0,1,0,0H141.23a0,0,0,0,1,0,0V218.45A3,3,0,0,1,144.26,215.42Z"/><rect class="cls-1" x="144.34" y="219.08" width="115.23" height="68.35"/><rect class="cls-4" x="144.34" y="224.09" width="115.23" height="65.91"/><path class="cls-3" d="M153.79,221.72a.92.92,0,1,1-.92-.92A.92.92,0,0,1,153.79,221.72Z"/><path class="cls-3" d="M148.21,221.72a.92.92,0,1,1-.92-.92A.92.92,0,0,1,148.21,221.72Z"/><path class="cls-3" d="M150.89,221.72a.92.92,0,1,1-.92-.92A.92.92,0,0,1,150.89,221.72Z"/><rect class="cls-2" x="152.32" y="255.99" width="26.29" height="1.76"/><rect class="cls-2" x="186.29" y="231.57" width="26.3" height="1.76"/><path class="cls-2" d="M251.69,238.12s-14.64.09-32.7.09-32.7,0-32.7-.09S200.93,238,219,238,251.69,238.08,251.69,238.12Z"/><path class="cls-2" d="M251.69,242s-14.64.09-32.7.09-32.7,0-32.7-.09,14.64-.08,32.7-.08S251.69,241.92,251.69,242Z"/><path class="cls-2" d="M251.69,245.81s-14.64.08-32.7.08-32.7,0-32.7-.08,14.64-.09,32.7-.09S251.69,245.76,251.69,245.81Z"/><path class="cls-2" d="M251.69,249.65s-14.64.08-32.7.08-32.7,0-32.7-.08,14.64-.09,32.7-.09S251.69,249.6,251.69,249.65Z"/><path class="cls-2" d="M251.69,253.49s-14.64.08-32.7.08-32.7,0-32.7-.08,14.64-.08,32.7-.08S251.69,253.44,251.69,253.49Z"/><path class="cls-2" d="M211.82,257.33s-5.72.08-12.77.08-12.76,0-12.76-.08,5.71-.08,12.76-.08S211.82,257.28,211.82,257.33Z"/><path class="cls-2" d="M251.21,264.78c0,.05-9.62.09-21.49.09s-21.5,0-21.5-.09,9.63-.08,21.5-.08S251.21,264.74,251.21,264.78Z"/><path class="cls-2" d="M251.21,268.86c0,.05-9.62.08-21.49.08s-21.5,0-21.5-.08,9.63-.08,21.5-.08S251.21,268.81,251.21,268.86Z"/><path class="cls-2" d="M251.21,272.94s-9.62.08-21.49.08-21.5,0-21.5-.08,9.63-.08,21.5-.08S251.21,272.89,251.21,272.94Z"/><path class="cls-2" d="M251.21,277c0,.05-9.62.09-21.49.09s-21.5,0-21.5-.09,9.63-.08,21.5-.08S251.21,277,251.21,277Z"/><path class="cls-2" d="M178.68,264.39c0,.05-5.73.09-12.81.09s-12.81,0-12.81-.09,5.73-.08,12.81-.08S178.68,264.35,178.68,264.39Z"/><path class="cls-2" d="M178.68,267.59c0,.05-5.73.09-12.81.09s-12.81,0-12.81-.09,5.73-.08,12.81-.08S178.68,267.55,178.68,267.59Z"/><path class="cls-2" d="M178.68,270.8s-5.73.08-12.81.08-12.81,0-12.81-.08,5.73-.09,12.81-.09S178.68,270.75,178.68,270.8Z"/><path class="cls-2" d="M178.68,274s-5.73.08-12.81.08-12.81,0-12.81-.08,5.73-.08,12.81-.08S178.68,274,178.68,274Z"/><path class="cls-2" d="M178.68,277.2c0,.05-5.73.08-12.81.08s-12.81,0-12.81-.08,5.73-.08,12.81-.08S178.68,277.16,178.68,277.2Z"/><rect class="cls-3" x="186.27" y="262.84" width="18.66" height="18.05"/><polygon class="cls-1" points="187.72 279.34 192.88 270.05 197.1 275.99 199.66 272.84 203.48 279.34 187.72 279.34"/><circle class="cls-1" cx="197.55" cy="268.25" r="1.34"/><path class="cls-1" d="M203.48,279.39v-.07a1.28,1.28,0,0,1,0-.21c0-.19,0-.46,0-.81,0-.72,0-1.75,0-3.07,0-2.64,0-6.39,0-10.9l.08.08H187.72l.09-.09h0v2c0,.67,0,1.34,0,2v3.89c0,2.52,0,4.91,0,7.11l-.07-.07,11.39,0,3.22,0h0l-3.2,0-11.44,0h-.08v-.08c0-2.2,0-4.59,0-7.11v-7.92h0l.09-.09,15.76,0h.08v.07c0,4.53,0,8.3,0,10.95,0,1.31,0,2.34,0,3.05,0,.34,0,.61,0,.79v.27Z"/><rect class="cls-3" x="152.82" y="228.57" width="25.3" height="24.48"/><polygon class="cls-2" points="154.78 250.96 161.78 238.36 167.5 246.41 170.98 242.13 176.16 250.96 154.78 250.96"/><path class="cls-2" d="M169.94,235.91a1.82,1.82,0,1,1-1.82-1.82A1.82,1.82,0,0,1,169.94,235.91Z"/><path class="cls-2" d="M176.16,251a.82.82,0,0,0,0-.1v-.28c0-.26,0-.63,0-1.1,0-1,0-2.38,0-4.16,0-3.58,0-8.67-.05-14.78l.1.1-21.38,0,.12-.12h0v10.75c0,3.43,0,6.67,0,9.65l-.11-.1,15.46.05,4.36,0h0l-4.33,0-15.53,0h-.1V251c0-3,0-6.22,0-9.65V230.62h0l.12-.12h21.48v.11c0,6.14,0,11.25,0,14.84,0,1.78,0,3.17,0,4.14,0,.46,0,.82,0,1.08v.27C176.16,251,176.16,251,176.16,251Z"/><rect class="cls-4" x="179.86" y="227.89" width="49.29" height="49.29"/><path class="cls-6" d="M229.15,277.18a2.17,2.17,0,0,1,0-.24c0-.17,0-.4,0-.69,0-.62,0-1.51,0-2.66,0-2.34,0-5.73-.06-10,0-8.63-.07-20.92-.11-35.66l.22.23-49.28,0,.25-.25v13.29c0,4.35,0,8.61,0,12.74,0,8.28,0,16.09,0,23.25l-.23-.22,35.66.11,10,.06,2.66,0h.93s-.07,0-.21,0h-.67l-2.61,0-10,.06-35.81.11h-.22v-.23c0-7.16,0-15,0-23.25,0-4.13,0-8.39,0-12.74V227.9c-.23.23.32-.33.27-.27l49.28,0h.23v.22c0,14.8-.09,27.14-.12,35.81,0,4.28,0,7.66-.06,10,0,1.13,0,2,0,2.61,0,.28,0,.5,0,.67S229.16,277.19,229.15,277.18Z"/><path class="cls-7" d="M216.65,247.51l-6.25-7.77a.75.75,0,0,0-1.28.2l-1,2.65c-11-3.27-17,6.29-17,6.29l4.2,3c4.58-7.07,11.1-4.79,11.1-4.79l-.88,2.32a.75.75,0,0,0,.82,1l9.85-1.66A.74.74,0,0,0,216.65,247.51Z"/><path class="cls-7" d="M214.46,256.77c-4.28,6.17-9.86,4.87-11,4.51l1.26-3a.35.35,0,0,0-.37-.48L193,259.35a.33.33,0,0,0-.22.54l6.84,9.07a.34.34,0,0,0,.59-.07l1.34-3.2c10.75,3.41,17-5.83,17-5.83Z"/><path class="cls-6" d="M229,233c0,.14-11,.26-24.57.26s-24.56-.12-24.56-.26,11-.26,24.56-.26S229,232.8,229,233Z"/><circle class="cls-6" cx="181.99" cy="230.46" r="0.44"/><circle class="cls-6" cx="183.35" cy="230.46" r="0.44"/><circle class="cls-6" cx="184.71" cy="230.46" r="0.44"/></g><g id="Device_1" data-name="Device 1"><rect class="cls-7" x="93.44" y="258.53" width="42.24" height="60.62" rx="3.22" ry="3.22"/><rect class="cls-4" x="94.77" y="262.68" width="39.58" height="50.62"/><path class="cls-6" d="M115.74,314.91a1.68,1.68,0,0,1-2.37,2.38A1.68,1.68,0,0,1,115.74,314.91Z"/><rect class="cls-6" x="108.2" y="260.28" width="12.72" height="0.67" rx="0.33" ry="0.33"/><rect class="cls-2" x="106.48" y="283.4" width="16.41" height="1.16"/><path class="cls-2" d="M128.71,287.71s-6.28.06-14,.06-14,0-14-.06,6.28,0,14,0S128.71,287.68,128.71,287.71Z"/><path class="cls-2" d="M128.71,289.82s-6.28.05-14,.05-14,0-14-.05,6.28-.05,14-.05S128.71,289.79,128.71,289.82Z"/><path class="cls-2" d="M128.71,291.93s-6.28.05-14,.05-14,0-14-.05,6.28-.06,14-.06S128.71,291.9,128.71,291.93Z"/><path class="cls-2" d="M128.71,294s-6.28.06-14,.06-14,0-14-.06,6.28,0,14,0S128.71,294,128.71,294Z"/><path class="cls-2" d="M128.71,296.14s-6.28.06-14,.06-14,0-14-.06,6.28-.05,14-.05S128.71,296.11,128.71,296.14Z"/><rect class="cls-3" x="106.39" y="264.38" width="15.79" height="16.11"/><polygon class="cls-2" points="107.62 279.12 111.98 270.82 115.56 276.12 117.73 273.31 120.96 279.12 107.62 279.12"/><ellipse class="cls-2" cx="115.94" cy="269.21" rx="1.14" ry="1.2"/><path class="cls-2" d="M121,279.16a.42.42,0,0,0,0-.07v-.91c0-.64,0-1.56,0-2.73,0-2.36,0-5.71,0-9.73l.07.07H107.62s.14-.15.07-.08h0v7.08c0,2.25,0,4.39,0,6.35l-.06-.07,9.64,0h0l-9.68,0h-.07v-.07c0-2,0-4.1,0-6.35v-7.08h0l.08-.08H121v.07c0,4,0,7.4,0,9.77,0,1.17,0,2.08,0,2.72v1Z"/><rect class="cls-3" x="107.08" y="297.19" width="15.79" height="16.11"/><polygon class="cls-2" points="108.3 311.92 112.67 303.63 116.25 308.93 118.42 306.12 121.65 311.92 108.3 311.92"/><ellipse class="cls-2" cx="116.63" cy="302.02" rx="1.14" ry="1.2"/><path class="cls-2" d="M121.65,312s0,0,0-.07v-.19c0-.17,0-.41,0-.72,0-.64,0-1.57,0-2.74,0-2.35,0-5.7,0-9.73l.07.07H108.3s.15-.15.08-.07h0v7.06c0,2.26,0,4.39,0,6.36l-.07-.07,9.65,0,2.72,0h0L118,312l-9.69,0h-.06V312c0-2,0-4.1,0-6.36v-7.06h0c-.07.07.09-.1.07-.09l13.35,0h.06v.06c0,4,0,7.41,0,9.77,0,1.17,0,2.09,0,2.72,0,.31,0,.55,0,.72V312Z"/><rect class="cls-4" x="101.29" y="273.53" width="26.54" height="26.54"/><path class="cls-6" d="M127.83,300.07s0-.18,0-.51,0-.84,0-1.44c0-1.3,0-3.12-.06-5.42,0-4.67-.06-11.27-.11-19.17l.22.22-26.54,0c-.06,0,.49-.49.26-.26h0v7.14c0,2.34,0,4.63,0,6.86,0,4.46,0,8.66,0,12.52l-.23-.22,19.17.11,5.42.06,1.44,0a2.91,2.91,0,0,1,.51,0,2.49,2.49,0,0,1-.46,0l-1.4,0-5.36.06-19.32.12h-.22v-.23c0-3.86,0-8.06,0-12.52,0-2.23,0-4.52,0-6.86v-7.14h0l.26-.26,26.54,0h.23v.23c-.05,8-.09,14.61-.12,19.31,0,2.28,0,4.09,0,5.37,0,.58,0,1.05,0,1.4A2.49,2.49,0,0,1,127.83,300.07Z"/><path class="cls-7" d="M121.1,284.09l-3.37-4.18a.4.4,0,0,0-.68.11l-.55,1.42c-5.92-1.76-9.16,3.39-9.16,3.39l2.26,1.6c2.47-3.82,6-2.58,6-2.58l-.47,1.24a.4.4,0,0,0,.44.54l5.3-.89A.4.4,0,0,0,121.1,284.09Z"/><path class="cls-7" d="M119.92,289.08a5.26,5.26,0,0,1-5.94,2.43l.68-1.62a.18.18,0,0,0-.2-.25l-6.07.83a.18.18,0,0,0-.12.29l3.68,4.88a.18.18,0,0,0,.32,0l.72-1.72c5.79,1.83,9.14-3.14,9.14-3.14Z"/><path class="cls-6" d="M127.74,276.25c0,.14-5.92.26-13.23.26s-13.23-.12-13.23-.26,5.92-.26,13.23-.26S127.74,276.11,127.74,276.25Z"/><path class="cls-6" d="M102.67,274.91a.23.23,0,0,1-.23.24.24.24,0,0,1-.24-.24.23.23,0,0,1,.24-.23A.23.23,0,0,1,102.67,274.91Z"/><path class="cls-6" d="M103.4,274.91a.23.23,0,0,1-.23.24.24.24,0,0,1-.24-.24.23.23,0,0,1,.24-.23A.23.23,0,0,1,103.4,274.91Z"/><path class="cls-6" d="M104.14,274.91a.24.24,0,0,1-.24.24.23.23,0,0,1-.23-.24.23.23,0,0,1,.23-.23A.23.23,0,0,1,104.14,274.91Z"/></g><g id="Desk"><rect class="cls-9" x="378.89" y="329.19" width="10.41" height="170.18"/><rect class="cls-9" x="87.13" y="329.19" width="10.41" height="170.18"/><rect class="cls-9" x="43.41" y="318.75" width="403.67" height="10.45"/><rect class="cls-9" x="262.48" y="329.19" width="116.41" height="29.2"/><path class="cls-6" d="M401.21,330c0,.15-80.11.1-178.89-.11s-178.91-.5-178.91-.65,80.09-.09,178.91.12S401.21,329.81,401.21,330Z"/><path class="cls-6" d="M269.55,358.38c-.14,0-.26-6.48-.26-14.49s.12-14.49.26-14.49.26,6.49.26,14.49S269.7,358.38,269.55,358.38Z"/><path class="cls-6" d="M370.85,352.85c0,.15-22.74.14-50.79,0s-50.78-.39-50.78-.53,22.73-.14,50.79,0S370.85,352.71,370.85,352.85Z"/><path class="cls-6" d="M370.85,358.4c-.15,0-.26-6.12-.26-13.67s.11-13.67.26-13.67.26,6.12.26,13.67S371,358.4,370.85,358.4Z"/><path class="cls-6" d="M379.4,385.43c-.14,0-.26-12.36-.26-27.6s.12-27.6.26-27.6.26,12.36.26,27.6S379.55,385.43,379.4,385.43Z"/><path class="cls-6" d="M325.33,338.06a3.79,3.79,0,1,1-3.78-3.79A3.79,3.79,0,0,1,325.33,338.06Z"/></g></g></svg>