<svg xmlns="http://www.w3.org/2000/svg" viewBox="0 0 574.01 370.69"><defs><style>.cls-1{fill:#ebebeb;}.cls-2{fill:#e0e0e0;}.cls-3{fill:#fafafa;}.cls-4{fill:#263238;}.cls-5{fill:#11487c;}.cls-6{fill:#fff;}.cls-7{fill:#f5f5f5;}.cls-8{fill:#455a64;}.cls-9{opacity:0.3;}</style></defs><title>Recurso 1</title><g id="Capa_2" data-name="Capa 2"><g id="Background_Complete" data-name="Background Complete"><path class="cls-1" d="M538.13,171.6s-7.53-3.12-12.57,14.42-6.35,27.34-6.35,27.34-1.51,3.76-4.23,2-7.06-7.34-10.75-5.47-4.29,6.72-2.23,13.22,6,20.88,6.4,22.18,0,3.34-2.07,2.45-14.66-10.44-18.83-4.19S492,267,493,268.87s.69,2.82-.16,3.5-4.79-2.94-8.49-5.5-8.44-4.9-10.54-1.09-.35,17.6,16.89,37.21l8.58,8.57,11.81-3c24.89-7.9,33.52-18.8,33.68-23.15s-5.1-4.8-9.59-4.51-9.73,1.35-10.11.33-.09-1.93,1.67-3.08,18.06-11.34,17.72-18.85-16.08-5.85-18.29-6.14-1.47-2.25-.51-3.16,11.82-11.2,16.93-15.7,7.19-8.83,4.91-12.47-8.8-1-12-.87-2.58-3.91-2.58-3.91,3.95-9.07,8.68-26.7S538,171.55,538,171.55"/><path class="cls-2" d="M533.59,187.3s0,.13-.08.37-.16.63-.27,1.09c-.26,1-.62,2.38-1.09,4.18-.94,3.63-2.35,8.87-4.11,15.33-3.52,12.93-8.53,30.76-14.14,50.42s-10.66,37.49-14.26,50.4c-1.78,6.44-3.23,11.66-4.23,15.29l-1.16,4.16c-.14.46-.24.82-.31,1.08l-.12.36s0-.13.08-.37.15-.63.27-1.09c.25-1,.61-2.38,1.08-4.18.94-3.63,2.35-8.86,4.11-15.33,3.52-12.93,8.54-30.76,14.14-50.43s10.66-37.48,14.26-50.39c1.78-6.44,3.23-11.66,4.24-15.29.5-1.79.88-3.19,1.15-4.16.14-.46.24-.82.32-1.08S533.59,187.3,533.59,187.3Z"/><path class="cls-2" d="M510,218a3.8,3.8,0,0,1,.47.75c.27.49.65,1.21,1.11,2.11.91,1.8,2.1,4.31,3.36,7.12l3.21,7.18,1,2.17a3.51,3.51,0,0,1,.33.82,3.43,3.43,0,0,1-.47-.75c-.27-.49-.65-1.21-1.1-2.11-.89-1.81-2-4.34-3.32-7.14s-2.37-5.24-3.25-7.16l-1-2.17A3.71,3.71,0,0,1,510,218Z"/><path class="cls-2" d="M520.57,238.13c-.05-.11,5-2.8,11.34-6s11.48-5.74,11.53-5.64-5,2.79-11.34,6S520.63,238.23,520.57,238.13Z"/><path class="cls-2" d="M510.6,267.94a4.73,4.73,0,0,1,.87-.21l2.39-.46c2-.39,4.8-.94,7.85-1.65s5.79-1.45,7.77-2l2.35-.64a3.49,3.49,0,0,1,.88-.19,3.45,3.45,0,0,1-.83.34c-.54.2-1.33.46-2.31.77-2,.62-4.7,1.4-7.76,2.11s-5.86,1.22-7.9,1.54c-1,.15-1.84.26-2.41.33A3.61,3.61,0,0,1,510.6,267.94Z"/><path class="cls-2" d="M497,251.83s.24.18.6.57.89.95,1.53,1.66c1.27,1.41,3,3.38,4.9,5.57s3.59,4.19,4.81,5.66c.6.73,1.09,1.32,1.42,1.74a3.25,3.25,0,0,1,.48.68s-.24-.19-.61-.57l-1.52-1.66c-1.27-1.41-3-3.38-4.9-5.58s-3.59-4.19-4.81-5.65l-1.42-1.74A3.25,3.25,0,0,1,497,251.83Z"/><path class="cls-2" d="M484.88,277a6.57,6.57,0,0,1,.76.74l2,2.12c1.63,1.8,3.87,4.31,6.33,7.1s4.66,5.32,6.25,7.17l1.85,2.21a5.57,5.57,0,0,1,.64.84,5.08,5.08,0,0,1-.76-.73l-2-2.12c-1.64-1.8-3.88-4.31-6.34-7.1s-4.66-5.32-6.25-7.17l-1.85-2.21A5.54,5.54,0,0,1,484.88,277Z"/><path class="cls-2" d="M502.38,296.61a6.5,6.5,0,0,1,1.1-.3l3-.69c2.54-.58,6-1.4,9.89-2.41s7.3-2,9.8-2.74l3-.87a5.3,5.3,0,0,1,1.11-.28,6.11,6.11,0,0,1-1.06.43c-.68.25-1.68.59-2.92,1-2.48.81-5.93,1.85-9.79,2.86s-7.37,1.79-9.93,2.3c-1.28.25-2.32.44-3,.56A5.45,5.45,0,0,1,502.38,296.61Z"/><path class="cls-2" d="M507.83,339a9.93,9.93,0,0,1,9.45-3.12,13.21,13.21,0,0,1,8.27,5.93c.87,1.36,1.54,3,1,4.55A4.24,4.24,0,0,1,523.2,349a8.64,8.64,0,0,1-4.42-.65c-4.82-1.84-9.15-4.51-10.95-9.35"/><path class="cls-2" d="M499.64,334.21a23.15,23.15,0,0,0,6-20.31c-.36-1.84-1.26-3.92-3.1-4.28s-3.45,1.25-4.44,2.84a19.79,19.79,0,0,0,1.08,22"/><path class="cls-2" d="M539,309.28a11.62,11.62,0,0,1-1.82,8.92,20.49,20.49,0,0,1-6.89,6.19c-5.2,3.07-12.08,4-18.11,3.95.48-6.68,5.92-12.24,8.85-14.88,4.64-4.18,15.56-8.92,18-4.18"/><path class="cls-3" d="M490.23,344a23.7,23.7,0,0,1,2.57-1.59A42.7,42.7,0,0,1,503.66,339,21.28,21.28,0,0,1,515,340.21a14.35,14.35,0,0,1,3,1.71,4,4,0,0,1,.94.86,28.93,28.93,0,0,0-4.14-2.13,22.33,22.33,0,0,0-11-1,49,49,0,0,0-10.77,3.2"/><path class="cls-3" d="M490.14,344.1c1.19-.85,2.74-2,4.61-3.34,3.89-2.81,9.26-6.71,15.13-11.1s11.13-8.43,14.93-11.36l4.51-3.47a11.4,11.4,0,0,1,1.71-1.2,15.87,15.87,0,0,1-1.55,1.41c-1,.87-2.51,2.12-4.38,3.63-3.72,3-8.94,7.14-14.82,11.53S499,338.44,495,341.15c-2,1.36-3.6,2.44-4.73,3.17"/><path class="cls-3" d="M501.55,318a3.93,3.93,0,0,1,.32,1.17,9.87,9.87,0,0,1,.23,1.41,16.65,16.65,0,0,1,.14,1.88,25.22,25.22,0,0,1-.34,4.91,28.41,28.41,0,0,1-1.7,5.79,29,29,0,0,1-3,5.24,25.4,25.4,0,0,1-3.3,3.65,15.27,15.27,0,0,1-1.46,1.2,10.32,10.32,0,0,1-1.16.82c-.67.41-1,.34-1,.3a38.33,38.33,0,0,0,3.29-2.67A26.5,26.5,0,0,0,496.7,338a30.12,30.12,0,0,0,2.88-5.14,30.61,30.61,0,0,0,1.71-5.63,26.7,26.7,0,0,0,.47-4.79C501.78,319.66,501.42,318,501.55,318Z"/></g><g id="Floor"><path class="cls-4" d="M574,370.43c0,.14-128.51.26-287,.26s-287-.12-287-.26,128.48-.26,287-.26S574,370.29,574,370.43Z"/></g><g id="Clock"><circle class="cls-5" cx="465.05" cy="43.12" r="40.24" transform="translate(105.72 341.47) rotate(-45)"/><path class="cls-3" d="M483.32,44.36a8.9,8.9,0,0,1-1.42.09l-3.91.08c-3.32,0-7.94.08-13.16.09h-.26V41.75c0-5.83,0-11.11.07-14.93,0-1.84.06-3.36.08-4.52a10,10,0,0,1,.11-1.66,11,11,0,0,1,.1,1.66c0,1.16.05,2.68.08,4.52.05,3.82.08,9.1.08,14.93,0,.89,0,1.77,0,2.61l-.25-.26c5.22,0,9.84,0,13.16.09l3.91.08A7.6,7.6,0,0,1,483.32,44.36Z"/><path class="cls-3" d="M465,9.49a11.33,11.33,0,0,1,.26,3.38,11.33,11.33,0,0,1-.26,3.38,11.33,11.33,0,0,1-.26-3.38A11.33,11.33,0,0,1,465,9.49Z"/><path class="cls-3" d="M483.29,14.92a10.85,10.85,0,0,1-2.18,2.54,10.72,10.72,0,0,1-2.54,2.17,10.85,10.85,0,0,1,2.18-2.54A10.72,10.72,0,0,1,483.29,14.92Z"/><path class="cls-3" d="M494,26.63a14.13,14.13,0,0,1-2.78,1.85,13.68,13.68,0,0,1-2.92,1.61A9.15,9.15,0,0,1,491,28,8.77,8.77,0,0,1,494,26.63Z"/><path class="cls-3" d="M500.29,44a41,41,0,0,1-9.22,0,41,41,0,0,1,9.22,0Z"/><path class="cls-3" d="M436.37,43.4a36.6,36.6,0,0,1-8.71,0,36.6,36.6,0,0,1,8.71,0Z"/><path class="cls-3" d="M440.89,56.34a19.84,19.84,0,0,1-3.29,3A19.11,19.11,0,0,1,434,61.9a19.62,19.62,0,0,1,3.29-3A19.32,19.32,0,0,1,440.89,56.34Z"/><path class="cls-3" d="M452,66.34a28.79,28.79,0,0,1-2.24,3.88,29.87,29.87,0,0,1-2.37,3.8A14.28,14.28,0,0,1,449.36,70,14.84,14.84,0,0,1,452,66.34Z"/><path class="cls-3" d="M465,79.25a20.89,20.89,0,0,1-.26-4.61A20.89,20.89,0,0,1,465,70a20.89,20.89,0,0,1,.26,4.61A20.89,20.89,0,0,1,465,79.25Z"/><path class="cls-3" d="M484.82,73.11A13.57,13.57,0,0,1,481,70.5a13.49,13.49,0,0,1-3.1-3.41,43.36,43.36,0,0,1,3.44,3A43.34,43.34,0,0,1,484.82,73.11Z"/><path class="cls-3" d="M494.14,63.06a16,16,0,0,1-3.05-2.68,16.1,16.1,0,0,1-2.68-3.05,16.1,16.1,0,0,1,3,2.68A16,16,0,0,1,494.14,63.06Z"/><path class="cls-3" d="M440.47,31a12.55,12.55,0,0,1-2.7-2.32,12.55,12.55,0,0,1-2.32-2.7,12.27,12.27,0,0,1,2.69,2.33A12.27,12.27,0,0,1,440.47,31Z"/><path class="cls-3" d="M452,18.88a11.83,11.83,0,0,1-2.65-2.27A12.06,12.06,0,0,1,447.05,14a12.35,12.35,0,0,1,2.65,2.27A11.81,11.81,0,0,1,452,18.88Z"/></g><g id="Mobile"><path class="cls-4" d="M481,370.44l-73.26-.34a15.93,15.93,0,0,1-15.88-16L392.59,171a15.93,15.93,0,0,1,16-15.85l73.25.34a15.93,15.93,0,0,1,15.88,16L497,354.6A15.94,15.94,0,0,1,481,370.44Z"/><path class="cls-6" d="M481.77,161.8l-14.21-.06a3.52,3.52,0,0,0-3.46,3.58v2.56a3.52,3.52,0,0,1-3.47,3.58l-27.68-.12a3.53,3.53,0,0,1-3.43-3.62v-2.56a3.52,3.52,0,0,0-3.44-3.61l-5,0-12.43-.06a11.18,11.18,0,0,0-11.23,11.1l-.76,178.75a11.17,11.17,0,0,0,11.13,11.2l73.1.33a11.16,11.16,0,0,0,11.23-11.09L492.89,173A11.16,11.16,0,0,0,481.77,161.8Z"/><path class="cls-5" d="M431.54,309.39l.72,13.29a.89.89,0,0,0,.89.84l23.9.18a.91.91,0,0,0,.91-.89l.07-10.34a.9.9,0,0,0-.9-.9l-14.7,0a.89.89,0,0,1-.63-.26l-2.54-2.54a.9.9,0,0,0-.62-.26l-6.2,0A.89.89,0,0,0,431.54,309.39Z"/><rect class="cls-7" x="431.87" y="309.91" width="26.12" height="15.61" transform="translate(2.34 -3.25) rotate(0.42)"/><path class="cls-5" d="M429.84,311.2l1.88,16.29a.58.58,0,0,0,.57.51l25.45.18a.57.57,0,0,0,.58-.52l1.4-16.27a.58.58,0,0,0-.57-.63l-28.73-.21A.59.59,0,0,0,429.84,311.2Z"/><path class="cls-5" d="M473.05,259.36a10.41,10.41,0,0,1-.45-2.82c-.19-.89-.35-2-.66-3.23l-.57-2c-.21-.69-.53-1.39-.81-2.15a29.34,29.34,0,0,0-6.22-9.29,28.31,28.31,0,0,0-35.58-3.49,31.23,31.23,0,0,0-5.78,5c-.62.66-1.08,1.2-1.4,1.57s-.51.54-.55.51.06-.27.3-.69a14.32,14.32,0,0,1,1.18-1.78,26.51,26.51,0,0,1,5.63-5.48,28.08,28.08,0,0,1,10.69-4.73,28.66,28.66,0,0,1,26.54,8.11,28.88,28.88,0,0,1,6.22,9.9c.25.8.55,1.54.73,2.27s.32,1.42.47,2.06c.24,1.3.32,2.44.42,3.36A10.07,10.07,0,0,1,473.05,259.36Z"/><path class="cls-5" d="M459.47,249.27c.27-.34,6.46,3.93,13.84,9.54l.41.31-1.21.37c3-8.53,5.7-15.25,6.1-15.11S477,251.46,474,260l-.35,1-.86-.65-.41-.32C465,254.44,459.21,249.61,459.47,249.27Z"/><path class="cls-5" d="M419.47,254.64a9.58,9.58,0,0,1,.11,2.77c.05.88.11,1.95.23,3.19a34.22,34.22,0,0,0,.82,4.14,28.88,28.88,0,0,0,4.75,9.76,27.7,27.7,0,0,0,10.15,8.43l.79.4.81.32,1.62.64c.55.18,1.1.32,1.64.48a13.56,13.56,0,0,0,1.64.41,28.21,28.21,0,0,0,17-1.6,30.9,30.9,0,0,0,6.44-3.67c.71-.52,1.25-.94,1.62-1.23s.59-.41.63-.37-.11.24-.41.6a15,15,0,0,1-1.46,1.47,25.68,25.68,0,0,1-6.37,4.21,27.79,27.79,0,0,1-11,2.67,28.47,28.47,0,0,1-6.73-.58,13.2,13.2,0,0,1-1.73-.42c-.58-.16-1.16-.31-1.74-.5l-1.71-.66-.86-.34-.84-.43-1.65-.85c-.53-.32-1-.66-1.55-1a29.8,29.8,0,0,1-2.87-2.15c-.46-.37-.85-.81-1.27-1.2s-.85-.78-1.21-1.21l-1.08-1.28-.53-.64-.46-.66A28.35,28.35,0,0,1,419.56,265a29.7,29.7,0,0,1-.62-4.32c0-1.29,0-2.39,0-3.29A9.43,9.43,0,0,1,419.47,254.64Z"/><path class="cls-5" d="M431.71,266.31c-.3.31-5.93-4.69-12.56-11.16l-.37-.36,1.24-.21c-4,8.1-7.52,14.43-7.9,14.24s2.51-6.82,6.5-14.93l.48-1,.77.75.37.36C426.87,260.5,432,266,431.71,266.31Z"/></g><g id="Computer"><path class="cls-4" d="M33.64,150.39H347.45a6.74,6.74,0,0,1,6.74,6.74v195.8a14.57,14.57,0,0,1-14.57,14.57H40.45a14.57,14.57,0,0,1-14.57-14.57V158.14A7.75,7.75,0,0,1,33.64,150.39Z"/><path class="cls-4" d="M12.16,351.43H367.85a0,0,0,0,1,0,0v5.27a13.72,13.72,0,0,1-13.72,13.72H25.88a13.72,13.72,0,0,1-13.72-13.72v-5.27a0,0,0,0,1,0,0Z"/><rect class="cls-8" x="34.7" y="159.01" width="309.76" height="183.34"/><polygon class="cls-8" points="157.67 351.43 162.09 358.45 224.19 358.45 228.29 351.43 157.67 351.43"/><rect class="cls-6" x="45.03" y="171.22" width="285.19" height="171.06"/><path class="cls-4" d="M57.2,179.66a2.39,2.39,0,1,1-2.39-2.4A2.39,2.39,0,0,1,57.2,179.66Z"/><path class="cls-4" d="M67,179.66a2.4,2.4,0,1,1-2.4-2.4A2.4,2.4,0,0,1,67,179.66Z"/><path class="cls-4" d="M76.73,179.66a2.4,2.4,0,1,1-2.39-2.4A2.39,2.39,0,0,1,76.73,179.66Z"/><path class="cls-4" d="M330.22,190.13c0,.15-63.85.27-142.59.27S45,190.28,45,190.13s63.83-.28,142.6-.28S330.22,190,330.22,190.13Z"/><rect class="cls-8" x="25.88" y="351.58" width="328.3" height="1.05"/><path class="cls-5" d="M140.33,228.33l2.87,52.8a3.56,3.56,0,0,0,3.53,3.37l95,.7a3.57,3.57,0,0,0,3.59-3.54l.3-41.1a3.56,3.56,0,0,0-3.56-3.59l-58.44-.05a3.53,3.53,0,0,1-2.51-1L171,225.79a3.56,3.56,0,0,0-2.49-1l-24.63-.18A3.57,3.57,0,0,0,140.33,228.33Z"/><rect class="cls-7" x="141.67" y="230.38" width="103.82" height="62.04" transform="translate(1.92 -1.41) rotate(0.42)"/><path class="cls-5" d="M133.6,235.5l7.45,64.75a2.29,2.29,0,0,0,2.26,2l101.17.74a2.3,2.3,0,0,0,2.31-2.09l5.56-64.66a2.29,2.29,0,0,0-2.26-2.49L135.89,233A2.29,2.29,0,0,0,133.6,235.5Z"/><path class="cls-2" d="M215.1,268.41c-.31,0-.15-2.84-1.86-6.86a20.21,20.21,0,0,0-4.24-6.24,19.66,19.66,0,0,0-7.84-4.68,19.89,19.89,0,0,0-9.13-.51,19.6,19.6,0,0,0-7,2.8c-3.65,2.41-5.14,4.84-5.37,4.65-.07,0,.19-.7.94-1.74a17.65,17.65,0,0,1,3.8-3.82,19.41,19.41,0,0,1,7.34-3.3A19.65,19.65,0,0,1,210,254.3a19.54,19.54,0,0,1,4.23,6.85,17.29,17.29,0,0,1,1,5.29C215.27,267.71,215.2,268.41,215.1,268.41Z"/><path class="cls-2" d="M205.85,261.53c.26-.34,4.55,2.48,9.57,6.3l.28.22-1.21.36c2-5.81,4-10.34,4.4-10.2s-.9,4.9-2.92,10.72l-.35,1-.86-.65-.28-.21C209.45,265.26,205.59,261.88,205.85,261.53Z"/><path class="cls-2" d="M178.6,265.19c.32,0-.19,2.75,1,6.84a19.9,19.9,0,0,0,3.25,6.56,18.86,18.86,0,0,0,6.84,5.65,21.2,21.2,0,0,0,2.16.92c.75.21,1.47.46,2.21.6a18.84,18.84,0,0,0,4.29.44,19.29,19.29,0,0,0,7.17-1.45,22,22,0,0,0,4.4-2.42c1-.67,1.5-1.11,1.59-1s-.31.65-1.21,1.49a16.88,16.88,0,0,1-4.32,3,19,19,0,0,1-7.59,1.88,19.68,19.68,0,0,1-4.65-.38c-.79-.15-1.58-.41-2.39-.63a21.71,21.71,0,0,1-2.35-1,19.45,19.45,0,0,1-10.47-13.35,18.69,18.69,0,0,1-.39-3c0-.88,0-1.64.06-2.26C178.34,265.84,178.49,265.18,178.6,265.19Z"/><path class="cls-2" d="M186.94,273.14c-.3.31-4.21-3-8.73-7.42l-.26-.25,1.25-.21c-2.74,5.52-5.23,9.78-5.61,9.59s1.49-4.75,4.21-10.28l.47-1,.77.76.26.24C183.82,269,187.24,272.83,186.94,273.14Z"/></g><g id="Cloud"><path class="cls-5" d="M374.49,105.7s-.3,0-.91,0l-2.75,0-10.69.07L320,106l-138.41.22h-.38l-.1-.36a34.39,34.39,0,0,1,33.94-44l-.52.66a29.22,29.22,0,0,1-1.07-9.29c.43-10.7,6.51-21,15.85-25.82a31.31,31.31,0,0,1,29.33.16l-.72.25c5-12.14,15.48-20.94,26.86-25s24.1-3.6,34.06,1.61a46.46,46.46,0,0,1,21.08,23A44,44,0,0,1,342.54,55l-.38-.44a32.94,32.94,0,0,1,16,2.3A33.44,33.44,0,0,1,370.07,65a21.52,21.52,0,0,1,3.74,5.36,30.27,30.27,0,0,1,2,5.7,51.5,51.5,0,0,1,1.37,10.42,59.53,59.53,0,0,1-1.25,14.39,34.07,34.07,0,0,1-1,3.63c-.27.81-.43,1.19-.43,1.19"/><g class="cls-9"><path d="M374.49,105.7s-.3,0-.91,0l-2.75,0-10.69.07L320,106l-138.41.22h-.38l-.1-.36a34.39,34.39,0,0,1,33.94-44l-.52.66a29.22,29.22,0,0,1-1.07-9.29c.43-10.7,6.51-21,15.85-25.82a31.31,31.31,0,0,1,29.33.16l-.72.25c5-12.14,15.48-20.94,26.86-25s24.1-3.6,34.06,1.61a46.46,46.46,0,0,1,21.08,23A44,44,0,0,1,342.54,55l-.38-.44a32.94,32.94,0,0,1,16,2.3A33.44,33.44,0,0,1,370.07,65a21.52,21.52,0,0,1,3.74,5.36,30.27,30.27,0,0,1,2,5.7,51.5,51.5,0,0,1,1.37,10.42,59.53,59.53,0,0,1-1.25,14.39,34.07,34.07,0,0,1-1,3.63c-.27.81-.43,1.19-.43,1.19"/></g><path class="cls-5" d="M359.22,105.7s-.3,0-.92,0l-2.74,0-10.69.07-40.11.14-138.42.22H166l-.11-.36a34.4,34.4,0,0,1,33.94-44l-.51.66a28.94,28.94,0,0,1-1.07-9.29c.42-10.7,6.51-21,15.85-25.82a31.29,31.29,0,0,1,29.32.16l-.71.25c5-12.14,15.47-20.94,26.86-25s24.09-3.6,34,1.61a46.41,46.41,0,0,1,21.08,23A44,44,0,0,1,327.27,55l-.39-.44a32.9,32.9,0,0,1,16,2.3A33.35,33.35,0,0,1,354.79,65a21.3,21.3,0,0,1,3.75,5.36,31,31,0,0,1,2,5.7,50.74,50.74,0,0,1,1.36,10.42,59,59,0,0,1-1.25,14.39,32.22,32.22,0,0,1-1,3.63c-.28.81-.43,1.19-.43,1.19"/><path class="cls-3" d="M299.34,61a10.5,10.5,0,0,1-.45-2.85c-.19-.9-.35-2-.67-3.26l-.57-2c-.21-.7-.54-1.4-.82-2.16a29.57,29.57,0,0,0-6.29-9.4,29.2,29.2,0,0,0-11.77-7.07A29.57,29.57,0,0,0,265,33.57a28.84,28.84,0,0,0-10.46,4.28,31.68,31.68,0,0,0-5.85,5c-.63.67-1.09,1.22-1.41,1.58s-.52.55-.56.52.06-.27.31-.7a13.5,13.5,0,0,1,1.19-1.79A26.84,26.84,0,0,1,254,36.94a28.42,28.42,0,0,1,10.81-4.78,29,29,0,0,1,26.81,8.2,29.19,29.19,0,0,1,6.29,10c.26.81.56,1.55.74,2.29l.48,2.09c.24,1.31.32,2.47.42,3.39A10.27,10.27,0,0,1,299.34,61Z"/><path class="cls-3" d="M285.62,50.84c.26-.34,6.52,4,14,9.65l.41.32-1.21.36c3-8.62,5.76-15.4,6.16-15.27s-1.68,7.16-4.68,15.79l-.36,1-.85-.65-.42-.32C291.19,56.06,285.36,51.19,285.62,50.84Z"/><path class="cls-3" d="M245.19,56.27a9.61,9.61,0,0,1,.1,2.8c.06.89.12,2,.24,3.23a31.68,31.68,0,0,0,.83,4.18,29.1,29.1,0,0,0,4.79,9.87,28.16,28.16,0,0,0,10.27,8.52l.79.41.83.32,1.63.65c.55.18,1.11.32,1.66.48a12.23,12.23,0,0,0,1.66.42,28.66,28.66,0,0,0,17.2-1.62,31.38,31.38,0,0,0,6.5-3.71c.72-.53,1.27-1,1.64-1.25s.6-.42.63-.38-.1.25-.42.61a14,14,0,0,1-1.47,1.49,26.26,26.26,0,0,1-6.43,4.25,28.23,28.23,0,0,1-11.16,2.69,29.18,29.18,0,0,1-6.81-.58,15.23,15.23,0,0,1-1.74-.43c-.58-.17-1.18-.31-1.76-.5L262.44,87l-.87-.34-.84-.43-1.67-.85-1.57-1a31.72,31.72,0,0,1-2.9-2.17c-.46-.37-.86-.81-1.28-1.21s-.86-.79-1.22-1.23L251,78.52l-.53-.64L250,77.2a28.3,28.3,0,0,1-5.33-14.83c0-1.3,0-2.41,0-3.32A9.8,9.8,0,0,1,245.19,56.27Z"/><path class="cls-3" d="M257.56,68.07c-.3.31-6-4.75-12.69-11.29l-.38-.36,1.25-.22c-4.06,8.19-7.6,14.59-8,14.4s2.55-6.89,6.58-15.09l.47-1,.77.75.38.36C252.67,62.2,257.86,67.76,257.56,68.07Z"/><path class="cls-5" d="M444.78,156.12s0-.18,0-.51l0-1.51c0-1.34,0-3.29,0-5.81,0-5.08-.05-12.43-.08-21.61l.17.18-81.39.08-90.34-.11h-.15v-.15c0-6.46.05-11.58.07-15.1,0-1.73,0-3.08,0-4,0-.44,0-.78,0-1a2.37,2.37,0,0,1,0-.35,2.37,2.37,0,0,1,0,.35c0,.25,0,.59,0,1,0,.92,0,2.27,0,4,0,3.52,0,8.64.07,15.1l-.15-.15,90.34-.11,81.39.09H445v.17c0,9.18-.06,16.53-.08,21.61,0,2.52,0,4.47-.05,5.81,0,.65,0,1.15,0,1.51S444.78,156.12,444.78,156.12Z"/><path class="cls-5" d="M193,150.39c-.14,0-.26-9.93-.26-22.16s.12-22.17.26-22.17.26,9.92.26,22.17S193.12,150.39,193,150.39Z"/></g></g></svg>